<?xml version="1.0" encoding="utf-8"?>
<svg width="17px" height="17px" viewBox="0 0 17 17" version="1.1" xmlns:xlink="http://www.w3.org/1999/xlink" xmlns="http://www.w3.org/2000/svg">
  <desc>Created with Lunacy</desc>
  <path d="M16.4856 12.0875L16.4981 12.0986C16.9364 12.5373 17.1041 13.1454 16.9356 13.6857C16.7919 14.1468 16.4929 14.4972 16.1911 14.8071C14.8186 16.2384 13.236 16.9999 11.6674 17C11.4263 17 11.1856 16.982 10.9459 16.9457L10.9429 16.9452C9.33967 16.6674 7.7052 15.6233 5.64313 13.5597L3.45096 11.3658C1.38893 9.30215 0.34563 7.66636 0.0680832 6.06185C-0.236635 4.22967 0.482512 2.46256 2.20533 0.808673C2.51424 0.507471 2.86433 0.208204 3.32495 0.0644086C3.86492 -0.104116 4.47257 0.0636459 4.91086 0.502278L4.92199 0.514775C5.47603 1.21322 6.02931 1.94543 6.56438 2.65355C6.72266 2.86303 6.88047 3.07186 7.03781 3.27925L7.04473 3.28837L7.05018 3.29843C7.33113 3.82108 7.40731 4.31336 7.27051 4.72207C7.13785 5.11832 6.87476 5.35358 6.64261 5.56115L6.61274 5.58784C5.99712 6.13979 5.73722 6.67795 5.79479 7.2815C5.85368 7.79805 6.15848 8.35443 6.6308 8.80532L6.63326 8.80775L8.20152 10.3773C8.65224 10.85 9.20821 11.1551 9.72687 11.2143C10.327 11.2715 10.8649 11.0115 11.4165 10.3954L11.4432 10.3655C11.6506 10.1332 11.8857 9.86985 12.2816 9.73715C12.6901 9.60016 13.1819 9.67645 13.7041 9.95762L13.7142 9.96305L13.7233 9.96997C13.9303 10.1273 14.1387 10.285 14.3478 10.4432C15.0556 10.9789 15.7875 11.5328 16.4856 12.0875ZM4.61728 7.39262C4.52653 6.44123 4.9555 5.48793 5.8251 4.70826C6.06621 4.49207 6.13535 4.3913 6.15089 4.34487C6.16408 4.30553 6.19474 4.21395 6.02403 3.88793L4.07042 1.32973C3.9389 1.19899 3.87201 1.15904 3.80299 1.15904C3.76515 1.15904 3.72663 1.17107 3.67648 1.18673C3.52034 1.23548 3.27885 1.40914 3.03046 1.65129C1.54187 3.14106 0.986985 4.4395 1.23273 5.86006C1.46042 7.17619 2.45863 8.70423 4.28448 10.5315L6.47665 12.7255C8.30253 14.5527 9.8294 15.5517 11.1445 15.7796C12.564 16.0254 13.8614 15.4702 15.3513 13.9791C15.5919 13.7319 15.7654 13.4902 15.8141 13.3339C15.8583 13.1922 15.8735 13.1434 15.6713 12.9397L13.1151 10.9845C12.7893 10.8137 12.6978 10.8444 12.6585 10.8576C12.6121 10.8731 12.5114 10.9423 12.2954 11.1836C11.5163 12.054 10.5638 12.4834 9.61311 12.3924C8.61199 12.2968 7.83745 11.6953 7.36402 11.2076L5.80042 9.64275C5.31324 9.16886 4.71283 8.39403 4.61728 7.39262Z" id="Fill-1" fill="#000000" fill-rule="evenodd" stroke="none" />
</svg>