<?xml version="1.0" encoding="utf-8"?>
<svg width="48px" height="51px" viewBox="0 0 48 51" version="1.1" xmlns:xlink="http://www.w3.org/1999/xlink" xmlns="http://www.w3.org/2000/svg">
  <desc>Created with Lunacy</desc>
  <g id="Obag_double">
    <path d="M44.9179 14.2358C45.779 14.2358 46.5632 15.1622 46.569 16.1831L48 47.6617L48 47.6725C48 50.3886 45.6475 51 44.8235 51L3.17647 51C1.71144 51 0 50.1283 0 47.6725L0 47.6509L1.43294 16.1882C1.43872 15.0606 2.33455 14.239 3.56727 14.239L9.24193 14.239C9.4261 12.1737 10.019 8.96232 11.8466 6.06144C13.0017 4.2291 14.4898 2.78787 16.2744 1.77773C18.3529 0.596811 20.8505 0 23.6933 0C26.5142 0 28.9989 0.597445 31.0787 1.77773C32.8627 2.7866 34.3585 4.22783 35.5251 6.05953C37.3887 8.98644 37.9925 12.2568 38.185 14.2358L44.9179 14.2358ZM12.6622 6.56174C15.0071 2.83993 18.7187 0.952357 23.6933 0.952357C28.6312 0.952357 32.3384 2.8412 34.7108 6.56746C36.4492 9.29374 37.0267 12.347 37.2193 14.2358L10.2064 14.2358C10.3893 12.2695 10.9591 9.2658 12.6622 6.56174ZM3.17647 50.0476L44.8235 50.0476C44.8453 50.0476 47.031 49.9829 47.0374 47.6814L45.6083 16.2015L45.6083 16.1907C45.6083 15.6091 45.1553 15.1844 44.9198 15.1844L38.3596 15.1844C38.3724 15.4828 38.4905 17.7919 39.0969 19.1887C39.2612 19.5982 39.4036 19.9443 39.4973 20.1557C39.5403 20.2527 39.5844 20.3511 39.6288 20.4503C40.0078 21.297 40.4125 22.2011 40.4079 22.8223C40.4079 24.2249 39.2587 25.3619 37.8411 25.3619C36.4234 25.3619 35.2742 24.2249 35.2742 22.8223C35.2742 22.136 35.7517 21.1176 36.12 20.1874C36.2131 19.9519 36.3677 19.5614 36.5493 19.1043C36.6898 18.6935 37.2712 16.8942 37.2603 15.1869L10.2533 15.1869C10.2661 15.4853 10.3842 17.7945 10.9899 19.1913C11.1542 19.6008 11.2967 19.9468 11.3904 20.1582C11.4318 20.2513 11.4741 20.3455 11.5168 20.4405C11.8988 21.2908 12.3076 22.2006 12.3042 22.8248C12.3042 24.2283 11.1542 25.366 9.73572 25.366C8.31721 25.366 7.16727 24.2283 7.16727 22.8248C7.16727 22.1385 7.64535 21.1201 8.01369 20.19L8.44171 19.1056C8.58289 18.6948 9.16428 16.8955 9.15337 15.1882L3.56727 15.1882C2.86652 15.1895 2.39487 15.5945 2.39487 16.1964L2.39487 16.218L0.962567 47.6814C0.962567 48.5975 1.2507 49.2585 1.81283 49.6477C2.34738 50.0191 2.99166 50.0476 3.17647 50.0476Z" id="Shape" fill="#221F20" fill-rule="evenodd" stroke="none" />
  </g>
</svg>