<?xml version="1.0" encoding="utf-8"?>
<svg width="58px" height="57px" viewBox="0 0 58 57" version="1.1" xmlns:xlink="http://www.w3.org/1999/xlink" xmlns="http://www.w3.org/2000/svg">
  <desc>Created with Lunacy</desc>
  <g id="Icon_one">
    <path d="M57.7226 43.1061L47.5853 15.2847L47.5749 15.2885C46.3736 10.2201 41.9301 6.5128 36.6239 6.15195C36.6278 5.46508 36.4943 3.60745 35.0808 2.09293C33.7795 0.702717 31.7741 0 29.1158 0L28.8564 0C26.1981 0 24.194 0.705254 22.8914 2.09293C21.4948 3.58589 21.3483 5.41308 21.3483 6.1215L20.9055 6.1215C15.3768 6.1215 10.7351 10.1171 9.94796 15.3811L0.278138 43.1061C-0.0988333 44.2025 -0.0924468 45.3903 0.296292 46.4827C0.944665 48.2439 2.83013 50.3407 8.15391 50.3819L8.15391 53.1725C8.21831 53.8597 8.4548 54.5208 8.84249 55.0973C9.42602 55.9643 10.6249 57 13.0187 57L45.4891 57C47.7714 57 48.9125 55.9611 49.4675 55.0897C49.8345 54.5097 50.0566 53.8533 50.1159 53.1737L50.1159 50.3832C55.2329 50.2747 57.0684 48.2198 57.7019 46.4852C58.0921 45.3924 58.0994 44.2035 57.7226 43.1061ZM23.6124 2.73793C24.7218 1.55257 26.4866 0.951332 28.8584 0.951332L29.1177 0.951332C31.483 0.951332 33.2453 1.5494 34.3553 2.72715C35.5269 3.9734 35.6475 5.55451 35.652 6.12214L33.6369 6.12214C33.5915 5.56846 33.4002 4.6463 32.6766 3.87382C31.8759 3.01953 30.6602 2.58635 29.0639 2.58635L28.9135 2.58635C27.3159 2.58635 26.1002 3.01953 25.2995 3.87446C24.5733 4.64884 24.3846 5.57036 24.3399 6.12404L22.3247 6.12404C22.3247 5.56085 22.4395 3.99115 23.6124 2.73793ZM25.3144 6.12404L32.6598 6.12404C32.6131 5.70799 32.4601 5.04777 31.9524 4.51058C31.3429 3.86621 30.371 3.53959 29.0639 3.53959L28.9135 3.53959C27.5999 3.53959 26.6254 3.86938 26.0166 4.51883C25.5089 5.06045 25.3572 5.7118 25.3144 6.12404ZM35.7849 7.07537C37.8082 7.07383 39.7935 7.6131 41.5263 8.63492C40.9315 8.81406 40.3632 9.06864 39.836 9.39218C38.4588 10.2433 36.8172 11.9741 36.8172 15.3849L36.8172 49.5244L20.8497 49.5244L20.8497 15.3849C20.8497 11.9741 19.2074 10.2433 17.8302 9.39218C17.165 8.98525 16.4364 8.68706 15.6731 8.50935C17.2504 7.56989 19.0619 7.07374 20.9087 7.07537L35.7849 7.07537ZM14.7459 9.31291L14.7589 9.12264C12.6539 10.7002 11.2675 13.0242 10.8991 15.593L10.8991 15.6018C10.8641 15.8555 10.8375 16.1092 10.822 16.3629L9.10637 44.3302C9.10054 44.4278 9.0973 44.5261 9.0973 44.6232C9.0973 47.3298 11.3402 49.5241 14.1073 49.5244L19.8778 49.5244L19.8778 15.3849C19.8778 12.9946 19.0141 11.2485 17.3115 10.1964C16.5347 9.71768 15.658 9.41576 14.7459 9.31291ZM46.8773 17.0479L49.2173 44.2686C49.3269 45.5509 48.9113 46.8232 48.0618 47.8057C47.2123 48.7882 45.9986 49.4003 44.6877 49.5073C44.5516 49.5187 44.4135 49.5244 44.278 49.5244L37.7897 49.5244L37.7897 15.3849C37.7897 13.0104 38.6417 11.2714 40.3229 10.216C41.0187 9.7877 41.7933 9.49623 42.6032 9.35793C42.8483 9.54355 43.086 9.73995 43.3164 9.94713C45.3737 11.792 46.6451 14.3272 46.8773 17.0479ZM1.19883 43.4124C0.891448 44.3062 0.896694 45.2745 1.21374 46.165C1.98725 48.2795 4.40243 49.4058 8.1993 49.4325C8.35945 48.6758 8.8373 48.0061 9.04218 47.7467C8.76861 47.3245 8.5522 46.8693 8.39835 46.3926C8.21681 46.4085 7.95746 46.425 7.65661 46.425C6.75862 46.425 5.49235 46.2779 4.82777 45.5529C4.53665 45.2358 4.24358 44.6701 4.47181 43.7771C5.17724 41.0145 8.83989 29.9631 8.9955 29.4945L9.03959 29.5084L9.67953 19.1034L1.19883 43.4124ZM50.0699 49.4274C53.7111 49.3545 56.031 48.2294 56.789 46.1618C57.1043 45.2729 57.109 44.3068 56.8026 43.415L48.0534 19.4072L48.9216 29.4551L48.9443 29.4475C49.1025 29.9181 52.8255 41.0107 53.5309 43.7739C53.7591 44.6701 53.4635 45.2327 53.1756 45.5498C52.511 46.2779 51.2447 46.4225 50.3461 46.4225C50.1957 46.4225 50.0602 46.418 49.9363 46.4123C49.7812 46.8907 49.5632 47.3473 49.2879 47.7708C49.5404 48.1168 49.7487 48.4917 49.9084 48.887C49.9778 49.0624 50.0318 49.2431 50.0699 49.4274ZM8.13187 44.2731C8.12474 44.3898 8.12085 44.5077 8.12085 44.6232C8.121 44.9005 8.14115 45.1775 8.18115 45.4521C7.4219 45.5003 6.05449 45.4661 5.55329 44.9162C5.48197 44.8382 5.26412 44.5991 5.41519 44.008C5.86905 42.2252 7.63457 36.7601 8.8159 33.1469L8.13187 44.2731ZM49.2665 33.5015L50.184 44.1887C50.2213 44.6139 50.2107 45.0419 50.1522 45.4648C50.929 45.48 52.015 45.3906 52.4475 44.9162C52.5201 44.8375 52.736 44.5991 52.5849 44.008C52.146 42.2873 50.4621 37.1165 49.2665 33.5015ZM47.4796 51.3174C48.0508 51.1163 48.5125 50.8703 48.8503 50.5868L48.8477 50.5868C49.4669 50.0661 48.9852 49.0887 48.6636 48.5706C47.6568 49.6592 46.2644 50.3324 44.7688 50.4536C44.606 50.4669 44.4407 50.4739 44.278 50.4739L14.1034 50.4739C12.516 50.4786 10.9926 49.862 9.87275 48.7615C9.79883 48.6887 9.72687 48.6143 9.65684 48.5382C9.39684 48.9213 9.07331 49.527 9.12258 50.0198C9.14138 50.2414 9.25602 50.4447 9.43769 50.5785C9.79948 50.8664 10.3033 51.1208 10.8959 51.3148C11.708 51.5816 12.5594 51.716 13.4161 51.7125L45.1144 51.7125C45.9201 51.7145 46.7202 51.5809 47.4796 51.3174ZM48.6422 54.5836C48.0243 55.5533 46.9629 56.0455 45.4891 56.0455L13.0187 56.0455C9.40138 56.0455 9.14074 53.3399 9.12842 53.1351L9.12842 51.5336C9.58161 51.8248 10.073 52.0545 10.5892 52.2167C11.4901 52.512 12.4342 52.6619 13.3843 52.6607L45.139 52.6607C46.0473 52.6609 46.9489 52.5086 47.8045 52.2104C48.2783 52.0513 48.7294 51.8335 49.1466 51.5622L49.1466 53.1351C49.0913 53.6487 48.919 54.1437 48.6422 54.5836Z" id="Shape" fill="#221F20" fill-rule="evenodd" stroke="none" />
  </g>
</svg>