<?xml version="1.0" encoding="utf-8"?>
<svg width="48px" height="49px" viewBox="0 0 48 49" version="1.1" xmlns:xlink="http://www.w3.org/1999/xlink" xmlns="http://www.w3.org/2000/svg">
  <desc>Created with Lunacy</desc>
  <g id="Opocket_micro">
    <path d="M5.29928 7.95974C7.17994 5.93778 9.44993 4.29664 11.9799 3.12983C15.143 1.67032 18.7648 0.930021 22.7399 0.930021C26.3013 0.930021 29.6378 1.66598 32.6566 3.11681C35.075 4.27934 37.2995 5.90191 39.2648 7.9399C42.6325 11.4262 44.0996 14.9647 44.1142 15L45 14.6565C44.9365 14.5065 43.4642 10.942 39.9803 7.32795C37.9394 5.20254 35.6214 3.50866 33.0982 2.29405C29.9415 0.771297 26.4563 0 22.7399 0C18.6237 0 14.8666 0.770057 11.5726 2.28909C8.93011 3.50747 6.55924 5.22154 4.59525 7.33353C1.2079 10.9594 0.0482908 14.5406 0 14.6943L0.9099 14.9659C0.921972 14.9306 2.05363 11.4337 5.29928 7.95974Z" transform="translate(2 0)" id="Path" fill="#221F20" stroke="none" />
    <path d="M44.0475 3.10411C43.9937 3.22714 43.9046 3.3322 43.7912 3.40654C44.4502 3.57195 44.9301 4.12882 44.9868 4.79393C45.0434 5.45904 44.6645 6.08638 44.0426 6.35688C43.4207 6.62738 42.6925 6.48165 42.2282 5.99382C42.2695 6.31454 42.2892 6.63758 42.2872 6.96083C42.316 7.30476 42.5403 10.6541 40.739 13.6356L40.739 31.1707C40.739 32.7318 39.2965 34 37.5234 34L4.52934 34C2.75622 34 1.31376 32.7293 1.31376 31.1707L1.31376 13.5186L1.50151 13.5186C-0.223548 10.5673 -0.00439027 7.30098 0.0238054 6.96209C0.0238054 5.0878 0.499287 3.35875 3.86867 3.35875L38.4385 3.35875C40.3372 3.35875 41.317 3.90513 41.8111 4.7225C41.8963 4.09329 42.3589 3.57614 42.9837 3.41157C42.8544 3.32972 42.753 3.21166 42.6928 3.07268L42.6877 3.05947L41.8578 0.984614C41.763 0.76797 41.7847 0.519187 41.9156 0.321452C42.0464 0.123717 42.2693 0.0031257 42.5096 0L44.2686 0C44.513 0.00745415 44.7386 0.130602 44.8739 0.330438C45.0092 0.530274 45.0375 0.78204 44.9498 1.00599L44.9446 1.01794L44.0475 3.10411ZM43.9328 0.938716L43.3836 2.21444L42.8742 0.938716L43.9328 0.938716ZM31.1948 17.3012C34.5802 17.298 37.1754 16.3511 38.9095 14.4882C41.7066 11.4815 41.3317 7.0652 41.326 7.02182L41.326 6.97907C41.326 5.98942 41.1837 5.40155 40.8511 5.01235C40.4404 4.53199 39.6515 4.29873 38.4391 4.29873L3.86867 4.29873C2.65113 4.29873 1.86485 4.53388 1.45217 5.01424C1.11959 5.40343 0.977332 5.99131 0.977332 6.98095L0.977332 7.02371C0.973487 7.0652 0.606943 11.4966 3.40152 14.4938C5.13555 16.353 7.72891 17.3012 11.1105 17.3012C11.1592 17.2974 11.2745 17.2911 11.4366 17.2911C12.071 17.2911 13.4167 17.3936 14.3049 18.194C14.8669 18.6989 15.1514 19.3804 15.1514 20.2204L15.1514 22.5468L15.1514 22.5483C15.1511 22.5881 15.1462 23.1959 15.7653 23.8257C16.4138 24.4852 17.8659 25.2718 21.0975 25.2718L21.2064 25.2718C24.4707 25.2718 25.9241 24.4707 26.5649 23.7992C27.1655 23.1715 27.153 22.5706 27.1525 22.5474L27.1525 22.5468L27.1525 20.2204C27.1525 19.3804 27.437 18.697 27.999 18.194C29.1166 17.188 30.9551 17.2842 31.1948 17.3012ZM42.8073 5.16388C42.9058 5.39718 43.1378 5.5493 43.3951 5.5493C43.7464 5.54895 44.0311 5.26963 44.0315 4.92496C44.0315 4.67243 43.8764 4.44478 43.6387 4.34814C43.4009 4.2515 43.1272 4.30492 42.9452 4.48348C42.7632 4.66204 42.7088 4.93058 42.8073 5.16388ZM39.7778 31.1707C39.7778 32.2093 38.7666 33.0569 37.5234 33.0569L4.52934 33.0569C3.28617 33.0569 2.27497 32.2119 2.27497 31.1707L2.27497 14.6485C2.40314 14.8101 2.54155 14.9685 2.68637 15.1238C4.61329 17.1943 7.45336 18.2443 11.1291 18.2443L11.1701 18.2443L11.1771 18.2439C11.2945 18.2368 12.8304 18.1446 13.6603 18.8938C14.0178 19.217 14.1921 19.6483 14.1921 20.2229L14.1921 22.5109C14.1876 22.6688 14.2037 23.5716 15.0393 24.4456C16.1633 25.6201 18.2017 26.2155 21.0981 26.2155L21.2071 26.2155C24.1035 26.2155 26.1413 25.6201 27.2659 24.4456C28.1022 23.571 28.1182 22.6688 28.1137 22.5109L28.1137 20.2211C28.1137 19.6495 28.288 19.2151 28.6456 18.8919C29.5043 18.1179 31.1185 18.2411 31.1339 18.2424L31.1762 18.2424C34.8519 18.2424 37.6926 17.1924 39.6195 15.1219C39.6733 15.0641 39.7259 15.0056 39.7778 14.9465L39.7778 31.1707Z" transform="translate(3 15)" id="Shape" fill="#221F20" fill-rule="evenodd" stroke="none" />
    <path d="M2.12702 2.91632C2.09205 2.9991 2.04034 3.07398 1.97503 3.13639L1.97563 3.13639C2.66819 3.37008 3.08661 4.06457 2.9635 4.77604C2.84039 5.4875 2.2121 6.0059 1.48013 5.99995C0.748167 5.994 0.128634 5.46545 0.0174441 4.75207C-0.0937457 4.0387 0.336237 3.35112 1.03261 3.12872C0.960178 3.06035 0.903454 2.97746 0.866268 2.88564L0.0704453 0.942215C0.0341373 0.862854 0.0138152 0.777293 0.010609 0.690289C0.00659829 0.514298 0.0737191 0.343957 0.197181 0.2168C0.320643 0.0896421 0.490315 0.0161041 0.668808 0.0123898L0.675989 0.0123898L2.30413 0L2.31012 0C2.53898 0.00423665 2.75142 0.11806 2.87954 0.305089C3.00766 0.492118 3.03543 0.728938 2.95396 0.939855L2.94917 0.951655L2.12702 2.91632ZM2.00555 0.887346L1.50472 2.08326L1.01765 0.895016L2.00555 0.887346ZM0.942985 4.75124C1.03481 4.97045 1.25162 5.11345 1.49216 5.11345C1.81924 5.11313 2.08468 4.85245 2.08633 4.52995C2.0873 4.29278 1.94315 4.07843 1.7212 3.987C1.49925 3.89558 1.24329 3.94512 1.07286 4.11249C0.902435 4.27985 0.85116 4.53203 0.942985 4.75124Z" transform="translate(0 16)" id="Shape" fill="#221F20" fill-rule="evenodd" stroke="none" />
    <path d="M1.59366 0L3.40634 0C4.29126 0.0203353 5 0.909782 5 2C5 3.09022 4.29126 3.97966 3.40634 4L1.59366 4C0.708738 3.97966 0 3.09022 0 2C0 0.909782 0.708738 0.0203353 1.59366 0ZM1.59366 2.95598L3.40634 2.95598C3.82681 2.942 4.16177 2.51812 4.16177 2C4.16177 1.48188 3.82681 1.058 3.40634 1.04402L1.59366 1.04402C1.17319 1.058 0.838226 1.48188 0.838226 2C0.838226 2.51812 1.17319 2.942 1.59366 2.95598Z" transform="translate(22 34)" id="Shape" fill="#221F20" fill-rule="evenodd" stroke="none" />
  </g>
</svg>