<svg xmlns="http://www.w3.org/2000/svg" width="14.984" height="14.995" viewBox="0 0 14.984 14.995">
    <defs>
        <clipPath id="prefix__clip-path">
            <path id="prefix__Clip_2" d="M0 0h14.984v14.995H0z" class="prefix__cls-1" data-name="Clip 2" transform="translate(0 .005)"/>
        </clipPath>
        <style>
            .prefix__cls-1{fill:none}.prefix__cls-3{fill:#21c514}
        </style>
    </defs>
    <g id="prefix__Group_6" data-name="Group 6" transform="translate(0 -.005)">
        <g id="prefix__Group_3" data-name="Group 3">
            <path id="prefix__Clip_2-2" d="M0 0h14.984v14.995H0z" class="prefix__cls-1" data-name="Clip 2" transform="translate(0 .005)"/>
            <g id="prefix__Group_3-2" data-name="Group 3">
                <path id="prefix__Fill_1" d="M7.506 14.995a7.669 7.669 0 0 1-1.817-.218 7.431 7.431 0 0 1-3.857-2.37 7.534 7.534 0 0 1-1.8-4.243A7.482 7.482 0 0 1 4.284.719 7.93 7.93 0 0 1 5.4.294 7.58 7.58 0 0 1 6.589.056 6.89 6.89 0 0 1 7.47 0a8.123 8.123 0 0 1 1.323.113 7.465 7.465 0 0 1 4 2.08 8.128 8.128 0 0 1 .784.927 7.485 7.485 0 0 1-1.381 10.211 7.9 7.9 0 0 1-1.014.7 7.767 7.767 0 0 1-1.089.5 7.24 7.24 0 0 1-2.587.464zM7.494 1.386a7 7 0 0 0-.81.047 6.857 6.857 0 0 0-1.532.412 6.945 6.945 0 0 0-1.4.82A7.055 7.055 0 0 0 2.666 3.75a6.831 6.831 0 0 0-.814 1.4 6.861 6.861 0 0 0-.412 1.533 7.008 7.008 0 0 0 0 1.624 6.861 6.861 0 0 0 .411 1.533 6.956 6.956 0 0 0 .818 1.406 7.055 7.055 0 0 0 1.084 1.084 6.845 6.845 0 0 0 1.4.815 6.857 6.857 0 0 0 1.532.412 6.974 6.974 0 0 0 1.621 0 6.811 6.811 0 0 0 1.532-.412 6.944 6.944 0 0 0 1.4-.82 7.02 7.02 0 0 0 1.083-1.085 6.847 6.847 0 0 0 .814-1.4 6.883 6.883 0 0 0 .412-1.534 7.007 7.007 0 0 0 0-1.624 6.879 6.879 0 0 0-.412-1.533 6.97 6.97 0 0 0-.815-1.4 7.087 7.087 0 0 0-.513-.573 6.891 6.891 0 0 0-.578-.517 6.842 6.842 0 0 0-1.394-.813A6.857 6.857 0 0 0 8.3 1.434a7 7 0 0 0-.806-.048z" class="prefix__cls-3" data-name="Fill 1" transform="translate(0 .005)"/>
            </g>
        </g>
        <path id="prefix__Fill_4" d="M6.812.184a.675.675 0 0 0-.926 0L4.61 1.442l-2.027 2-1.232-1.218-.237-.236a.67.67 0 0 0-.926 0 .652.652 0 0 0 0 .914l1.693 1.677.237.236a.672.672 0 0 0 .926 0L4.32 3.557l2.03-2 .462-.457a.649.649 0 0 0 0-.914" class="prefix__cls-3" data-name="Fill 4" transform="translate(4 5)"/>
    </g>
</svg>
