<?xml version="1.0" encoding="utf-8"?>
<svg width="15px" height="14px" viewBox="0 0 15 14" version="1.1" xmlns:xlink="http://www.w3.org/1999/xlink" xmlns="http://www.w3.org/2000/svg">
  <desc>Created with Lunacy</desc>
  <path d="M6.8765 13.758C7.0505 13.919 7.2745 14 7.4995 14C7.7255 14 7.9515 13.918 8.1295 13.753C8.4075 13.494 10.9255 11.131 13.7355 7.89L13.7355 7.889C15.0295 6.396 15.3535 4.473 14.6005 2.746C13.8745 1.078 12.3315 0 10.6685 0C9.0885 0 8.0935 0.676 7.5005 1.329C6.9075 0.676 5.9125 0 4.3325 0C2.6705 0 1.1265 1.078 0.399503 2.746C-0.353497 4.474 -0.0294974 6.396 1.2655 7.89C4.0765 11.131 6.5935 13.494 6.8765 13.758ZM1.3215 3.144C1.8895 1.841 3.0705 1 4.3325 1C5.6995 1 6.4865 1.641 6.9065 2.179L7.5005 2.941L8.0945 2.179C8.5135 1.641 9.3015 1 10.6685 1C11.9305 1 13.1115 1.841 13.6785 3.144C14.2745 4.51 14.0125 6.041 12.9755 7.236C10.3425 10.273 7.9735 12.525 7.5005 12.97C7.0345 12.532 4.6635 10.278 2.0255 7.236C0.989503 6.041 0.725503 4.511 1.3215 3.144Z" id="Fill-1" fill="#3C3C3C" fill-rule="evenodd" stroke="none" />
</svg>