<?xml version="1.0" encoding="utf-8"?>
<svg width="18px" height="18px" viewBox="0 0 18 18" version="1.1" xmlns:xlink="http://www.w3.org/1999/xlink" xmlns="http://www.w3.org/2000/svg">
  <desc>Created with Lunacy</desc>
  <path d="M7.54211 15.0842C3.37672 15.0842 0 11.7075 0 7.54211C0 3.37672 3.37672 0 7.54211 0C11.7075 0 15.0842 3.37672 15.0842 7.54211C15.0842 9.26225 14.5084 10.8479 13.5389 12.1168L18 16.5778L16.5778 18L12.1168 13.5389C10.8479 14.5084 9.26225 15.0842 7.54211 15.0842ZM7.54211 13.073C10.5967 13.073 13.073 10.5967 13.073 7.54211C13.073 4.48749 10.5967 2.01123 7.54211 2.01123C4.48749 2.01123 2.01123 4.48749 2.01123 7.54211C2.01123 10.5967 4.48749 13.073 7.54211 13.073Z" id="Combined-Shape" fill="#3C3C3C" fill-rule="evenodd" stroke="none" />
</svg>