<?xml version="1.0" encoding="utf-8"?>
<svg width="54px" height="59px" viewBox="0 0 54 59" version="1.1" xmlns:xlink="http://www.w3.org/1999/xlink" xmlns="http://www.w3.org/2000/svg">
  <desc>Created with Lunacy</desc>
  <g id="Obag_urban">
    <path d="M53.4309 24.4019L53.4375 24.405C53.8392 24.626 54.0578 25.0633 53.9867 25.5041L48.7433 56.9528C48.5433 58.1359 47.4819 59.0036 46.239 59L8.10841 59C6.71612 59.0028 5.5266 58.0327 5.29817 56.7081L0.0143072 25.4299C-0.059979 24.9866 0.159676 24.5456 0.564873 24.3245L0.570744 24.3207C0.79631 24.2029 1.05685 24.1629 1.30918 24.2075C1.46117 24.2301 6.43062 24.9247 16.3382 25.26L19.1015 6.18304C19.1104 6.12275 19.1312 6.06466 19.1628 6.01192C19.1481 5.95169 19.1461 5.88921 19.1569 5.82822C19.4411 4.14127 20.3947 2.62712 21.8158 1.60616C23.1863 0.603331 24.9796 0.0327145 26.8714 0L27.2673 0C30.9164 0.0629125 33.9804 2.53286 34.5558 5.87666C34.5654 5.93431 34.5639 5.99319 34.5512 6.0503C34.5858 6.10611 34.608 6.16823 34.6165 6.23274L37.383 25.2858C46.7106 24.997 52.2039 24.388 52.6638 24.2974C52.9242 24.2415 53.1968 24.2786 53.4309 24.4019ZM20.0702 6.3139C20.0784 6.25688 20.0758 6.19888 20.0623 6.14278C20.0919 6.09383 20.112 6.04011 20.1217 5.98424C20.6344 3.03175 23.3533 1.0066 26.8851 0.943688L27.2543 0.943688C30.4292 0.998422 33.092 3.13745 33.5871 6.03016C33.5969 6.0908 33.6191 6.14896 33.6523 6.20129C33.6405 6.25465 33.6386 6.30958 33.6464 6.3636L36.3999 25.3147C33.6791 25.3902 30.6542 25.4374 27.3502 25.4374C23.5986 25.4374 20.2574 25.3808 17.3226 25.2915L20.0702 6.3139ZM47.7779 56.7999L53.0206 25.3537C53.0278 25.3038 53.0035 25.2545 52.9587 25.2285C52.9332 25.2158 52.9038 25.2122 52.8758 25.2185L52.8673 25.2185C52.11 25.3714 46.421 25.9413 37.5187 26.2213L37.8403 28.4365L37.8481 28.4365C37.8481 28.4365 38.2004 30.7535 38.9701 32.0615C39.1691 32.4194 39.3406 32.7214 39.4515 32.9051C39.9356 33.7079 40.4998 34.6252 40.5781 35.2637C40.7309 36.5472 39.7758 37.7071 38.445 37.8545C37.1141 38.0018 35.9114 37.0807 35.7587 35.7972C35.701 35.3088 35.913 34.5985 36.1249 33.8886C36.1859 33.6842 36.2469 33.4798 36.3014 33.2807L36.5858 32.2477C36.6739 31.8551 37.0359 30.1326 36.8337 28.5648L36.8696 28.5604L36.535 26.2584C33.7495 26.3346 30.6718 26.3843 27.3489 26.3843C23.5438 26.3843 20.1569 26.3257 17.1856 26.2345L16.849 28.556L16.8946 28.5617C16.6924 30.1294 17.0545 31.852 17.1425 32.2446L17.4269 33.2807C17.4815 33.4798 17.5425 33.6842 17.6035 33.8886C17.8154 34.5985 18.0274 35.3088 17.9697 35.7972C17.8166 37.0816 16.6128 38.0031 15.2811 37.8554C13.9494 37.7077 12.9939 36.5468 13.147 35.2625C13.2201 34.6239 13.7824 33.7066 14.2684 32.9039C14.3792 32.7202 14.5541 32.4182 14.7498 32.0602C15.4197 30.9322 15.7752 29.0436 15.8587 28.5573L16.1999 26.1999C6.19056 25.857 1.19959 25.1487 1.14153 25.1392L1.13044 25.1392C1.09961 25.1336 1.0677 25.138 1.03977 25.1518C0.994977 25.1781 0.970826 25.2276 0.97845 25.2776L6.26232 56.5533C6.41282 57.4236 7.19485 58.0607 8.10971 58.0582L46.2358 58.0582C47.0006 58.0614 47.6544 57.5279 47.7779 56.7999Z" id="Shape" fill="#221F20" fill-rule="evenodd" stroke="none" />
  </g>
</svg>