<?xml version="1.0" encoding="utf-8"?>
<svg width="44px" height="51px" viewBox="0 0 44 51" version="1.1" xmlns:xlink="http://www.w3.org/1999/xlink" xmlns="http://www.w3.org/2000/svg">
  <desc>Created with Lunacy</desc>
  <g id="Osquare">
    <path d="M43.0845 17.8622C43.4372 18.2555 43.6343 18.7566 43.6409 19.2766L44 51L0 51L0.360419 19.1886C0.366326 18.7191 0.545086 18.267 0.864748 17.913L4.00572 14.419C5.37704 12.8889 7.30691 11.9277 9.39402 11.7352L9.39402 9.55836C9.36639 9.22675 9.17751 6.0805 11.651 3.45678C13.7871 1.19069 17.2211 0.0291319 21.8571 0L22.026 0C26.662 0.0291319 30.0966 1.19069 32.2321 3.4574C34.7056 6.08112 34.5167 9.22737 34.4891 9.55897L34.4891 11.7284C36.6206 11.8928 38.5992 12.8608 39.9962 14.4228L43.0845 17.8622ZM12.375 4.07102C14.3345 2.00018 17.5539 0.943997 21.9419 0.929741C26.3298 0.943377 29.5486 1.99956 31.5087 4.07041C33.7796 6.46982 33.5314 9.45228 33.528 9.4937L33.5279 9.49389L33.5279 11.7104C31.9421 11.7747 30.4131 12.2987 29.1406 13.2141L28.5495 13.6424C26.7237 14.9645 24.3993 15.6934 22.0035 15.6946L21.9978 15.6946C19.6065 15.6946 17.2847 14.9651 15.4582 13.6399L14.8658 13.211C14.3205 12.8175 13.7242 12.4945 13.092 12.2503C12.2223 11.9131 11.2973 11.7279 10.3603 11.7036L10.3603 9.49513C10.3532 9.46538 10.1001 6.47471 12.375 4.07102ZM1.32411 19.2029L0.974608 50.0703L43.026 50.0715L42.6772 19.2872C42.6735 18.987 42.5597 18.6977 42.3559 18.4708L39.2696 15.0358C38.0556 13.6776 36.3422 12.8275 34.491 12.6649L34.491 14.5864L34.4981 14.5864C34.4981 14.5864 34.5662 16.1682 34.9805 17.0979C35.0865 17.3527 35.1778 17.5678 35.2375 17.6992C35.4984 18.2737 35.6911 18.9227 35.6872 19.3566C35.6872 20.2194 34.9054 20.9192 34.0001 20.9192C33.0949 20.9192 32.3131 20.2194 32.3131 19.3566C32.3131 18.9295 32.5668 18.2961 32.802 17.7171C32.8611 17.5709 32.96 17.3279 33.0756 17.0434C33.1592 16.7992 33.5022 15.7634 33.5254 14.7438L33.5254 12.6445C32.7523 12.6794 31.9908 12.8388 31.2723 13.1162C30.7175 13.3305 30.1942 13.6139 29.7156 13.9591L29.1258 14.3868C27.1342 15.8285 24.6042 16.625 22.0016 16.625L21.9952 16.625C19.3964 16.625 16.8684 15.8291 14.8768 14.3837L14.2857 13.956C13.8076 13.6112 13.285 13.328 12.7309 13.1137C11.9751 12.8209 11.1718 12.6587 10.3577 12.6346L10.3577 14.587L10.3673 14.587C10.3673 14.587 10.4354 16.1688 10.8492 17.0986C10.9552 17.3533 11.0458 17.5684 11.1062 17.6998C11.3664 18.2744 11.5559 18.9233 11.5559 19.3572C11.5559 20.22 10.7734 20.9198 9.86879 20.9198C8.96421 20.9198 8.18234 20.22 8.18234 19.3572C8.18234 18.9301 8.43611 18.2967 8.67061 17.7178C8.73036 17.5715 8.82865 17.3285 8.9443 17.044C9.02782 16.8054 9.35547 15.8137 9.39402 14.8219L9.39402 12.6742C7.58797 12.8627 5.92299 13.7043 4.73427 15.0296L1.59201 18.5266C1.42273 18.7144 1.32782 18.954 1.32411 19.2029Z" id="Shape" fill="#221F20" fill-rule="evenodd" stroke="none" />
  </g>
</svg>