<?xml version="1.0" encoding="utf-8"?>
<svg width="48px" height="55px" viewBox="0 0 48 55" version="1.1" xmlns:xlink="http://www.w3.org/1999/xlink" xmlns="http://www.w3.org/2000/svg">
  <desc>Created with Lunacy</desc>
  <g id="Obag_tote">
    <path d="M47.4687 43.7673L47.3535 43.8448C47.403 43.6508 47.383 43.4461 47.2968 43.2648C47.253 37.8565 44.4719 29.5917 39.0315 18.6956C34.7632 10.1497 30.1813 2.67992 28.8777 0.591982C28.5567 0.0817656 27.9097 -0.132051 27.3384 0.083237C25.9408 0.607112 25.3817 0.782998 24.149 0.847931L23.7819 0.847931C22.5582 0.78489 21.9695 0.598917 20.6169 0.0914324C20.0313 -0.127997 19.369 0.0924895 19.0415 0.615938C17.736 2.71081 13.1445 10.1995 8.88267 18.7391C3.45383 29.6151 0.679829 37.8659 0.6341 43.2673C0.556888 43.428 0.532149 43.6081 0.563253 43.783L0.536202 43.7647C0.507219 43.8057 -0.172272 44.7816 0.041558 45.8489C0.0934055 46.112 0.196625 46.3629 0.345558 46.5877L0.538778 50.4963L0.544575 50.5499C0.583863 50.7813 1.07142 52.8459 6.17888 54.0229C9.93958 54.889 18.0851 55 21.9985 55C23.217 55 24.026 54.9893 24.1632 54.9874L24.5213 54.9874C25.0533 54.9956 36.2729 55.1557 41.2026 54.0229C46.3088 52.849 46.7976 50.7819 46.8363 50.5499L46.8408 50.5234L47.005 47.2547C47.528 46.884 47.8487 46.4137 47.9595 45.8558C48.1688 44.786 47.4997 43.8082 47.4687 43.7673ZM1.6002 43.592L1.6002 43.4029C1.6002 40.5521 2.43298 36.7709 4.07535 32.1632C5.42789 28.3643 7.33884 23.988 9.75087 19.1552C13.994 10.654 18.5662 3.19245 19.8659 1.10892C19.9502 0.974391 20.1206 0.917917 20.2711 0.974645C21.7048 1.51176 22.3752 1.72169 23.7432 1.79418L24.1876 1.79418C25.5563 1.72358 26.2338 1.51113 27.6849 0.96708C27.8217 0.915223 27.9768 0.966087 28.054 1.08812C29.3511 3.16849 33.915 10.6074 38.162 19.1123C40.5798 23.9527 42.4933 28.3366 43.851 32.1411C45.4979 36.7577 46.3326 40.5458 46.3326 43.401L46.3326 43.5901L46.397 43.6531C46.285 43.7981 45.6815 44.3334 42.713 44.8175C38.8878 45.441 32.6281 45.7575 24.1052 45.7575L23.8231 45.7575C15.306 45.7575 9.04691 45.4423 5.22244 44.8175C2.25457 44.3334 1.65044 43.7981 1.53837 43.6531L1.6002 43.592ZM46.3629 46.5348C46.7287 46.2959 46.9393 46.0134 47.007 45.6724L47.0089 45.6724C47.0933 45.2462 46.938 44.8125 46.8066 44.5521C45.9037 45.2027 44.099 45.5576 42.6949 45.7795C38.8035 46.3936 32.5483 46.705 24.1033 46.705L23.8225 46.705C15.3781 46.705 9.12291 46.3936 5.23145 45.7795C3.85379 45.562 2.09034 45.2197 1.17061 44.5893C1.0463 44.8541 0.907185 45.267 0.988981 45.6736C1.0579 46.0128 1.27108 46.2946 1.64142 46.5335C2.22752 46.913 4.1404 47.6235 10.3428 48.1278C14.173 48.438 19.0937 48.6164 23.8418 48.6164L24.4408 48.6164C29.1321 48.6164 33.9916 48.4386 37.773 48.1285C43.0962 47.6916 45.2171 47.0971 46.0621 46.7L46.0698 46.5386L46.3378 46.5512L46.3629 46.5348ZM24.5441 54.0388C24.9754 54.0444 36.2241 54.1917 40.9798 53.0987C45.181 52.1354 45.8148 50.5928 45.8753 50.4005L46.0086 47.7471C41.2451 49.5072 26.2525 49.562 24.4401 49.562L23.8411 49.562C21.9128 49.562 5.23983 49.5015 1.35352 47.464L1.50295 50.4005C1.56671 50.5934 2.20047 52.131 6.40108 53.0993C11.0691 54.1748 23.1924 54.0486 24.1005 54.0391C24.1314 54.0388 24.1493 54.0386 24.1535 54.0386L24.5322 54.0386L24.5441 54.0388Z" id="Shape" fill="#221F20" fill-rule="evenodd" stroke="none" />
    <path d="M2.88583 2.07391C2.6537 2.63448 2.10671 3 1.49998 3C0.672182 2.99905 0.00126822 2.32839 0 1.5006C-0.000232623 0.89386 0.365078 0.346737 0.925563 0.114388C1.48605 -0.117961 2.13131 0.0102283 2.56042 0.439174C2.98953 0.868119 3.11797 1.51333 2.88583 2.07391ZM2.13691 1.49983C2.1368 1.14814 1.85167 0.863092 1.49998 0.863092C1.33095 0.863092 1.16886 0.930276 1.0494 1.04985C0.929933 1.16942 0.862896 1.33157 0.863048 1.5006C0.863366 1.85229 1.14867 2.13716 1.50036 2.13695C1.85205 2.13674 2.13701 1.85152 2.13691 1.49983Z" transform="translate(25 3)" id="Shape" fill="#221F20" fill-rule="evenodd" stroke="none" />
    <path d="M2.88583 2.07391C2.6537 2.63448 2.10671 3 1.49998 3C0.672182 2.99905 0.00126822 2.32839 0 1.5006C-0.000232623 0.89386 0.365078 0.346737 0.925563 0.114388C1.48605 -0.117961 2.13131 0.0102283 2.56042 0.439174C2.98953 0.868119 3.11797 1.51333 2.88583 2.07391ZM2.13691 1.49983C2.1368 1.14814 1.85167 0.863092 1.49998 0.863092C1.33095 0.863092 1.16886 0.930276 1.0494 1.04985C0.929933 1.16942 0.862896 1.33157 0.863048 1.5006C0.863366 1.85229 1.14867 2.13716 1.50036 2.13695C1.85205 2.13674 2.13701 1.85152 2.13691 1.49983Z" transform="translate(20 3)" id="Shape" fill="#221F20" fill-rule="evenodd" stroke="none" />
    <path d="M0.499 0L0.501 0Q0.550147 0 0.59835 0.00958814Q0.646553 0.0191763 0.691959 0.0379841Q0.737365 0.0567919 0.778229 0.0840967Q0.819094 0.111401 0.853846 0.146154Q0.888599 0.180906 0.915903 0.22177Q0.943208 0.262635 0.962016 0.308041Q0.980824 0.353447 0.990412 0.40165Q1 0.449853 1 0.499L1 2.501Q1 2.55015 0.990412 2.59835Q0.980824 2.64655 0.962016 2.69196Q0.943208 2.73736 0.915903 2.77823Q0.888599 2.81909 0.853846 2.85385Q0.819094 2.8886 0.778229 2.9159Q0.737365 2.94321 0.691959 2.96202Q0.646553 2.98082 0.59835 2.99041Q0.550147 3 0.501 3L0.499 3Q0.449853 3 0.40165 2.99041Q0.353447 2.98082 0.308041 2.96202Q0.262635 2.94321 0.22177 2.9159Q0.180906 2.8886 0.146154 2.85385Q0.111401 2.81909 0.0840967 2.77823Q0.0567919 2.73736 0.0379841 2.69196Q0.0191763 2.64655 0.00958814 2.59835Q0 2.55015 0 2.501L0 0.499Q0 0.449853 0.00958814 0.40165Q0.0191763 0.353447 0.0379841 0.308041Q0.0567919 0.262635 0.0840967 0.22177Q0.111401 0.180906 0.146154 0.146154Q0.180906 0.111401 0.22177 0.0840967Q0.262635 0.0567919 0.308041 0.0379841Q0.353447 0.0191763 0.40165 0.00958814Q0.449853 0 0.499 0Z" transform="translate(21 7)" id="Rectangle" fill="#221F20" stroke="none" />
    <path d="M0.499 0L0.501 0Q0.550147 0 0.59835 0.00958814Q0.646553 0.0191763 0.691959 0.0379841Q0.737365 0.0567919 0.778229 0.0840967Q0.819094 0.111401 0.853846 0.146154Q0.888599 0.180906 0.915903 0.22177Q0.943208 0.262635 0.962016 0.308041Q0.980824 0.353447 0.990412 0.40165Q1 0.449853 1 0.499L1 2.501Q1 2.55015 0.990412 2.59835Q0.980824 2.64655 0.962016 2.69196Q0.943208 2.73736 0.915903 2.77823Q0.888599 2.81909 0.853846 2.85385Q0.819094 2.8886 0.778229 2.9159Q0.737365 2.94321 0.691959 2.96202Q0.646553 2.98082 0.59835 2.99041Q0.550147 3 0.501 3L0.499 3Q0.449853 3 0.40165 2.99041Q0.353447 2.98082 0.308041 2.96202Q0.262635 2.94321 0.22177 2.9159Q0.180906 2.8886 0.146154 2.85385Q0.111401 2.81909 0.0840967 2.77823Q0.0567919 2.73736 0.0379841 2.69196Q0.0191763 2.64655 0.00958814 2.59835Q0 2.55015 0 2.501L0 0.499Q0 0.449853 0.00958814 0.40165Q0.0191763 0.353447 0.0379841 0.308041Q0.0567919 0.262635 0.0840967 0.22177Q0.111401 0.180906 0.146154 0.146154Q0.180906 0.111401 0.22177 0.0840967Q0.262635 0.0567919 0.308041 0.0379841Q0.353447 0.0191763 0.40165 0.00958814Q0.449853 0 0.499 0Z" transform="translate(26 7)" id="Rectangle" fill="#221F20" stroke="none" />
    <path d="M0.5 4.18774e-07C0.223858 4.18774e-07 0 0.210062 0 0.469186L0 32.5308C0 32.7899 0.223858 33 0.5 33C0.776142 33 1 32.7899 1 32.5308L1 0.469186C1.00018 0.344699 0.947555 0.225263 0.853749 0.137238C0.759942 0.0492126 0.632662 -0.000165896 0.5 4.18774e-07Z" transform="translate(21 10)" id="Path" fill="#221F20" stroke="none" />
    <path d="M0.5 4.18774e-07C0.223858 4.18774e-07 0 0.210062 0 0.469186L0 32.5308C0 32.7899 0.223858 33 0.5 33C0.776142 33 1 32.7899 1 32.5308L1 0.469186C1.00018 0.344699 0.947555 0.225263 0.853749 0.137238C0.759942 0.0492126 0.632662 -0.000165896 0.5 4.18774e-07Z" transform="translate(26 10)" id="Path" fill="#221F20" stroke="none" />
  </g>
</svg>