<?xml version="1.0" encoding="utf-8"?>
<svg width="20px" height="22px" viewBox="0 0 20 22" version="1.1" xmlns:xlink="http://www.w3.org/1999/xlink" xmlns="http://www.w3.org/2000/svg">
  <desc>Created with Lunacy</desc>
  <path d="M18.9954 5.55818C19.3804 5.51027 19.6164 5.64887 19.7465 5.77304C19.8732 5.89404 20.0197 6.116 19.9978 6.48633L19.3419 18.3644C19.3395 18.4516 19.3033 19.3011 18.8518 20.1554C18.4074 20.9968 17.4771 22 15.5717 22L4.43043 22C2.52511 22 1.59474 20.9968 1.14991 20.1554C0.710632 19.3228 0.664849 18.5125 0.66003 18.3585L0.0024329 6.48389C-0.0206999 6.11649 0.125567 5.89453 0.252797 5.77329C0.382677 5.64911 0.619065 5.51124 1.00365 5.55842C2.31908 5.71951 3.70705 5.84247 5.13284 5.9246C5.16561 5.01429 5.282 3.77544 5.76538 2.65931C6.11093 1.86144 6.60153 1.23224 7.22322 0.788822C7.95793 0.265222 8.87553 0 9.94976 0C11.0192 0 11.9317 0.265711 12.6616 0.7898C13.2797 1.23347 13.7679 1.86316 14.1124 2.66102C14.5975 3.78302 14.7151 5.02162 14.7484 5.93144C16.217 5.84907 17.6448 5.72367 18.9954 5.55818ZM10.5724 6.04609L10.5724 6.04976C11.6339 6.04731 12.6852 6.02433 13.7033 5.98204C13.6734 5.15827 13.5703 4.04849 13.1544 3.08538C12.8867 2.46669 12.5175 1.98538 12.0565 1.65416C11.5069 1.25987 10.7982 1.05991 9.95096 1.05991C9.09433 1.05991 8.37962 1.26011 7.82636 1.65464C7.36323 1.98513 6.99238 2.4662 6.72467 3.08464L6.72467 3.08489C6.30996 4.04262 6.20803 5.1524 6.17912 5.97716C7.23455 6.02287 8.32564 6.04707 9.42806 6.04976L9.42806 6.04902L9.66999 6.04804L10.0011 6.04951L10.5724 6.04609ZM5.11549 7.55944L5.10971 7.55944L5.11212 7.80633C5.11839 8.47122 4.89886 9.1894 4.83573 9.38129L4.65693 9.83938C4.48995 10.2716 4.33525 10.7164 4.33525 11.0438C4.33525 11.7646 4.92031 12.3513 5.63911 12.3513C6.3584 12.3513 6.94346 11.7646 6.94346 11.0438C6.94346 10.6409 6.73575 10.1029 6.61165 9.81811C6.60322 9.79856 6.59406 9.77656 6.5837 9.75187L6.59262 9.75187L6.44828 9.41087C6.20056 8.82762 6.16201 7.80047 6.16177 7.79876C6.16177 7.52522 6.16249 7.26538 6.1637 7.03707C7.3919 7.08987 8.66565 7.11456 9.95289 7.10893L10.0478 7.10893C11.2958 7.11309 12.5293 7.09109 13.7211 7.04196C13.7223 7.27051 13.7228 7.5306 13.723 7.80536C13.7293 8.46584 13.5062 9.18671 13.4414 9.3808L13.264 9.83938C13.097 10.2713 12.9426 10.7157 12.9426 11.0438C12.9426 11.7646 13.5264 12.3513 14.244 12.3513C14.9626 12.3513 15.5472 11.7646 15.5472 11.0438C15.5472 10.6414 15.3392 10.1031 15.2156 9.81811C15.1775 9.73036 15.1199 9.58687 15.0508 9.41087C14.804 8.82787 14.7679 7.8012 14.7676 7.79876C14.7676 7.50738 14.7667 7.2314 14.7652 6.9916C16.2086 6.91142 17.6113 6.79067 18.9412 6.63178L18.2966 18.3189C18.2681 18.7897 18.1445 19.2397 17.9298 19.6546C17.4785 20.5079 16.685 20.9408 15.572 20.9408L4.42946 20.9408C3.32246 20.9408 2.5321 20.5135 2.0798 19.6712C1.7304 19.021 1.70558 18.3553 1.70438 18.3143L1.05907 6.63251C2.35523 6.78724 3.71837 6.9058 5.11718 6.98549C5.11622 7.16002 5.11573 7.35387 5.11549 7.55944Z" id="Fill-1" fill="#FFFFFF" fill-rule="evenodd" stroke="none" />
</svg>