<?xml version="1.0" encoding="utf-8"?>
<svg width="56px" height="33px" viewBox="0 0 56 33" version="1.1" xmlns:xlink="http://www.w3.org/1999/xlink" xmlns="http://www.w3.org/2000/svg">
  <desc>Created with Lunacy</desc>
  <g id="Obag_sheen">
    <path d="M53.4851 0C54.4009 0 55.0856 0.280156 55.5204 0.833709C56.3529 1.89658 55.8595 3.56707 55.8094 3.72558C55.6714 4.22384 49.8681 25.0825 48.638 28.9764C48.2526 30.196 47.4241 31.8124 45.6628 32.5921C45.0813 32.8524 44.4473 32.9915 43.8038 33C43.7388 33 43.6906 32.9963 43.6626 32.9963L26.8444 32.9963L26.8444 32.992L12.3337 32.992C11.6431 33.0087 10.9582 32.8704 10.3354 32.5884C8.5748 31.8093 7.74688 30.1941 7.36221 28.9764C6.13334 25.0887 0.331368 4.23182 0.190777 3.72558C0.140659 3.56646 -0.353361 1.89658 0.48042 0.833709C0.911305 0.28077 1.59864 0 2.51443 0L53.4851 0ZM54.8643 3.48659L54.8695 3.46877C54.9925 3.09093 55.2034 1.97706 54.7348 1.37805C54.4913 1.06901 54.0832 0.919107 53.4864 0.919107L2.51573 0.919107C1.91822 0.919107 1.51077 1.07086 1.26734 1.37805C0.798051 1.97645 1.00894 3.08908 1.12935 3.46693L1.13456 3.48413C1.15018 3.54004 1.57195 5.05693 2.20656 7.33012L2.27816 7.29756L11.5858 25.2054C11.5858 25.2122 12.0186 26.0625 13.1681 26.9005C14.6938 28.0113 16.7929 28.5986 19.2382 28.5986L36.9884 28.5986C39.4195 28.5986 41.4184 28.0186 42.7683 26.922C43.7804 26.0999 44.0889 25.2638 44.0889 25.2558L44.1006 25.2226L44.1182 25.1894L53.7806 7.37313C54.4217 5.07721 54.8487 3.54311 54.8643 3.48659ZM47.7026 28.7135C46.5877 32.2412 43.8357 32.0852 43.7218 32.0766L27.8188 32.0766L27.8188 32.0704L12.2751 32.0704L12.2728 32.0706C12.228 32.0728 11.5498 32.1061 10.7494 31.7516C9.59929 31.2429 8.77462 30.2199 8.29753 28.7117C7.56398 26.3918 5.18826 17.9773 3.37164 11.4968L10.6993 25.598C10.7488 25.6975 11.2499 26.6504 12.5218 27.591C13.7096 28.4702 15.8413 29.5189 19.2402 29.5189L36.9884 29.5189C38.876 29.5189 41.5245 29.1817 43.4602 27.5744C44.5296 26.6867 44.9227 25.7848 45.0021 25.5808L52.6142 11.5503C50.7995 18.0209 48.4349 26.3955 47.7026 28.7135Z" id="Shape" fill="#221F20" fill-rule="evenodd" stroke="none" />
  </g>
</svg>