<?xml version="1.0" encoding="utf-8"?>
<svg width="48px" height="49px" viewBox="0 0 48 49" version="1.1" xmlns:xlink="http://www.w3.org/1999/xlink" xmlns="http://www.w3.org/2000/svg">
  <desc>Created with Lunacy</desc>
  <g id="Oswing">
    <path d="M47.1353 16.0386C46.1852 12.3665 44.6563 9.06001 43.5412 6.93334C43.442 6.74396 43.3216 6.56605 43.182 6.40294C43.6876 6.59835 44.2612 6.51447 44.6866 6.1829C45.112 5.85133 45.3246 5.32244 45.2445 4.79547C45.1643 4.26849 44.8034 3.82349 44.2978 3.62808C44.3269 3.58632 44.3519 3.54198 44.3725 3.49564L45.4181 1.09581L45.4233 1.08244C45.5183 0.844429 45.4896 0.576032 45.3463 0.362525C45.203 0.149018 44.963 0.0169483 44.7024 0.00827747L42.6846 0L42.6748 0C42.4201 0.00360402 42.1839 0.131497 42.0452 0.340995C41.9065 0.550493 41.8835 0.81401 41.9838 1.0436L42.9392 3.44343C42.9735 3.52992 43.0227 3.61003 43.0846 3.68029C42.6962 3.86492 42.4062 4.20276 42.287 4.60949C42.1678 5.01622 42.2307 5.45345 42.4599 5.81206C42.2896 5.71594 42.1087 5.63905 41.9208 5.58284C41.2629 5.38447 40.5509 5.45879 39.9503 5.7885C33.4057 9.31725 26.7013 10.6054 20.021 9.61524C14.3934 8.78112 10.144 6.49527 8.33069 5.52235C7.69925 5.18354 6.9344 5.18714 6.30632 5.5319C6.58895 4.77021 6.19927 3.92667 5.4289 3.63254C5.45923 3.58987 5.48492 3.5442 5.50553 3.49628L6.54467 1.09326L6.54987 1.07989C6.6458 0.840964 6.61671 0.571166 6.47194 0.357187C6.32716 0.143208 6.08495 0.0120029 5.82312 0.00573056L3.7981 0.00573056C3.54413 0.0105692 3.3092 0.138779 3.17119 0.347858C3.03319 0.556937 3.01013 0.81957 3.10967 1.04869L4.07282 3.44725C4.10673 3.53063 4.15458 3.60788 4.21441 3.67583C3.46405 4.0141 3.12612 4.87758 3.45311 5.6211C3.7801 6.36462 4.65252 6.71648 5.41851 6.41377C0.965153 13.8418 -0.755918 20.1041 0.302703 25.0285C1.47173 30.4783 5.81468 33.2181 9.25097 34.5572C11.7059 35.5125 14.3234 36.0021 16.9646 36L31.6288 36C33.8668 36 37.1304 35.6135 39.3749 34.7495C43.2223 33.2691 45.8176 30.8425 47.086 27.5449C48.2881 24.4275 48.3043 20.5561 47.1353 16.0386ZM44.4167 0.962097L43.6756 2.66407L42.9944 0.956366L44.4167 0.962097ZM5.5419 0.960823L4.80606 2.66407L4.12153 0.960823L5.5419 0.960823ZM4.32806 5.01933C4.32806 5.31578 4.57318 5.55609 4.87556 5.55609C5.17778 5.55574 5.42269 5.31563 5.42305 5.01933C5.42305 4.72289 5.17793 4.48257 4.87556 4.48257C4.57318 4.48257 4.32806 4.72289 4.32806 5.01933ZM43.2022 5.01933C43.2022 5.31578 43.4473 5.55609 43.7497 5.55609C44.0519 5.55574 44.2968 5.31563 44.2972 5.01933C44.2972 4.72289 44.0521 4.48257 43.7497 4.48257C43.4473 4.48257 43.2022 4.72289 43.2022 5.01933ZM7.86113 6.35773C7.69667 6.26792 7.51162 6.2206 7.32337 6.2202C6.89865 6.22796 6.51032 6.45702 6.30437 6.82127Q4.97817 9.02754 3.9806 11.0835C5.59321 11.8661 9.79717 13.4299 15.3059 14.2576C19.553 14.8875 23.8613 15.0215 28.1405 14.6569C33.5577 14.2029 39.0171 12.9663 44.3667 10.9817L44.7115 11.8731C39.2677 13.8902 33.7129 15.1503 28.1925 15.6094C26.5888 15.7427 24.9911 15.8093 23.3995 15.8093C20.6256 15.8113 17.8556 15.6054 15.1137 15.1936C8.62684 14.2124 4.51251 12.392 3.57209 11.9463Q2.13678 15.086 1.49381 17.8494L1.82244 17.1649C3.44739 17.9169 8.17547 19.5667 14.4402 20.4282C19.112 21.0598 23.8399 21.1943 28.5413 20.8293C34.4929 20.3747 40.4894 19.1369 46.3657 17.149L46.4735 17.4553C46.3895 17.0686 46.296 16.6759 46.1929 16.2773C45.2649 12.6919 43.7685 9.45669 42.6761 7.37332C42.4663 6.95452 42.0908 6.63816 41.637 6.49781C41.2309 6.37615 40.7918 6.42214 40.4212 6.62516C33.6843 10.2583 26.7721 11.5789 19.8762 10.5601C14.0758 9.69801 9.72053 7.35676 7.86113 6.35773ZM1.44705 18.0474C1.95688 18.2779 6.59468 20.3097 14.2603 21.3648C17.2672 21.7761 20.2998 21.9814 23.3358 21.9792Q25.9506 21.9792 28.5854 21.7799C34.6014 21.3234 40.6615 20.0767 46.5989 18.0754C47.0275 20.2938 47.1334 22.3231 46.9164 24.1467C40.9076 26.0919 34.778 27.3061 28.6945 27.755C23.8282 28.1197 18.9364 27.9852 14.0985 27.3539C7.72344 26.5127 2.88496 24.8993 1.12687 24.1301Q0.70342 21.3756 1.44705 18.0474ZM31.6288 35.0449C33.7071 35.0449 36.905 34.6743 39.0197 33.8606C42.5995 32.4827 45.0077 30.2446 46.1767 27.2074C46.4249 26.5582 46.6168 25.8896 46.7502 25.2087C40.8076 27.0909 34.752 28.2695 28.7387 28.7107C26.9224 28.8436 25.1128 28.91 23.3099 28.91C20.1715 28.9122 17.0366 28.7069 13.9264 28.2956C7.40391 27.4271 3.00641 25.8996 1.35613 25.2546C1.87032 27.2952 2.97417 29.147 4.53524 30.5878C5.87573 31.8434 7.58381 32.88 9.61207 33.6696C11.9523 34.5798 14.4475 35.0465 16.9653 35.0449L31.6288 35.0449Z" transform="translate(0 13)" id="Shape" fill="#221F20" fill-rule="evenodd" stroke="none" />
    <path d="M4.72745 6.96059C6.36155 5.23057 8.31045 3.83717 10.4668 2.85716C13.1868 1.6175 16.2959 0.989095 19.7069 0.989095C22.7718 0.989095 25.6428 1.61684 28.2398 2.85585C30.3598 3.87691 32.2846 5.27042 33.9251 6.9718C36.8221 9.94765 38.0896 12.9723 38.0988 13L38.5491 12.8101L39 12.6202C38.9466 12.4883 37.666 9.41684 34.648 6.30581C32.9268 4.51466 30.9055 3.04718 28.6783 1.9716C25.944 0.663353 22.926 0 19.7069 0C16.1449 0 12.892 0.659396 10.0392 1.9683C7.76383 3.00564 5.70863 4.48048 3.98759 6.31108C1.05026 9.43596 0.0416458 12.5285 0 12.6604L0.929222 12.9651C0.938332 12.9327 1.92677 9.92326 4.72745 6.96059Z" transform="translate(5 0)" id="Path" fill="#221F20" stroke="none" />
  </g>
</svg>