<?xml version="1.0" encoding="utf-8"?>
<svg width="48px" height="37px" viewBox="0 0 48 37" version="1.1" xmlns:xlink="http://www.w3.org/1999/xlink" xmlns="http://www.w3.org/2000/svg">
  <desc>Created with Lunacy</desc>
  <g id="Obag_moon">
    <path d="M9.51908 37L38.4766 37C40.292 37 41.9179 36.4981 43.3101 35.5092C44.5934 34.5944 45.6451 33.2912 46.4364 31.6269C47.8811 28.5927 48.3535 24.471 47.7328 20.3103C47.0827 15.9549 45.321 11.9318 42.7727 8.98723C39.5087 5.21055 35.515 2.56111 30.902 1.1138C28.6148 0.396874 26.1991 0.00128262 24.0923 0.00128262L24.0051 0.00128262C23.4736 -0.0102395 13.0948 -0.115859 5.22623 8.98531C2.67795 11.9318 0.916982 15.9562 0.266789 20.309C-0.35388 24.4678 0.120479 28.5927 1.56389 31.6262C2.35449 33.2873 3.40622 34.5919 4.68889 35.5053C6.07982 36.4975 7.70497 37 9.51908 37ZM5.97746 9.60303C13.1893 1.26231 22.5407 0.961457 23.8456 0.961457L24.0923 0.961457C26.0993 0.961457 28.4088 1.34041 30.6008 2.02789C35.0354 3.41886 38.8775 5.96781 42.0202 9.60175C44.4517 12.4131 46.1346 16.2641 46.7592 20.444C47.353 24.4224 46.9101 28.3488 45.5434 31.2178C44.4963 33.4153 42.4198 36.0398 38.4766 36.0398L9.51908 36.0398C5.57659 36.0398 3.50332 33.4205 2.45619 31.2217C1.09019 28.3533 0.64995 24.4262 1.24044 20.4472C1.86504 16.2666 3.54728 12.4157 5.97746 9.60303Z" id="Shape" fill="#221F20" fill-rule="evenodd" stroke="none" />
    <path d="M2.26181 8.58528C3.66776 9.49776 5.52826 10 7.5 10C9.47243 10 11.3363 9.49776 12.7389 8.58528C14.1967 7.63861 15 6.36499 15 4.99876C15 3.63252 14.1967 2.3589 12.7389 1.41223C11.3363 0.500373 9.47174 0 7.5 0C5.52826 0 3.66776 0.500373 2.25908 1.41223C0.803303 2.36201 0 3.63252 0 4.99876C0 6.36499 0.803303 7.63861 2.26181 8.58528ZM1.02375 4.99876C1.02375 2.75547 3.92916 0.929886 7.5 0.929886L7.5 0.932372C11.0715 0.932372 13.9762 2.75485 13.9762 4.99876C13.9762 7.24267 11.0708 9.06763 7.5 9.06763C3.92916 9.06763 1.02375 7.24204 1.02375 4.99876Z" transform="translate(17 3)" id="Shape" fill="#221F20" fill-rule="evenodd" stroke="none" />
  </g>
</svg>