<?xml version="1.0" encoding="utf-8"?>
<svg width="66px" height="49px" viewBox="0 0 66 49" version="1.1" xmlns:xlink="http://www.w3.org/1999/xlink" xmlns="http://www.w3.org/2000/svg">
  <desc>Created with Lunacy</desc>
  <g id="Obag_soft">
    <path d="M58.2239 27.1071L65.54 40.0616C65.582 40.1388 66.5624 41.9812 65.5264 43.6351C64.6004 45.1066 62.42 45.8821 59.0393 45.9444L59.5172 46.7293C59.6556 46.8961 60.116 47.5254 59.8185 48.1479C59.543 48.7211 58.7787 49 57.4738 49L8.82679 49C7.55872 49 6.80667 48.7236 6.52409 48.1566C6.21628 47.5304 6.65924 46.8936 6.78274 46.7355L7.1371 46.1616C3.65752 46.1224 1.41754 45.3431 0.476677 43.8492C-0.563126 42.1954 0.415892 40.3535 0.458571 40.2757L0.47021 40.2552L8.35926 27.3704L7.51863 26.5612L7.51863 12.9856C7.52005 11.7231 8.58288 10.7001 9.89439 10.6987L22.7645 10.6987C22.9107 9.84282 23.4888 7.19429 25.3104 4.89122C26.9722 2.79045 29.586 0 33.0914 0L33.1089 0C33.6997 0.00313602 34.2873 0.084827 34.8548 0.242756L34.8917 0.255828C34.9615 0.275746 35.0314 0.296287 35.1019 0.318073L35.1885 0.347328C35.2422 0.364757 35.2965 0.382185 35.3502 0.400859L35.4931 0.45439L35.5985 0.493604C35.6606 0.518502 35.7207 0.544645 35.7854 0.570788C35.8093 0.579502 35.8293 0.586972 35.85 0.596308C35.9224 0.627431 35.9949 0.660421 36.0666 0.694033L36.0977 0.707727C36.1792 0.746319 36.2606 0.786156 36.3421 0.82786C37.5738 1.45571 38.7905 2.43462 39.9924 3.76459C40.0034 3.77641 40.0144 3.78762 40.0247 3.80007C40.0862 3.86791 40.1476 3.93825 40.2084 4.00796C40.2284 4.03037 40.2478 4.05154 40.2672 4.07394C40.3384 4.15486 40.4089 4.23827 40.48 4.32293L40.5091 4.35716C40.586 4.45053 40.663 4.54265 40.7399 4.63726L40.7503 4.65033C40.8305 4.74951 40.9107 4.85056 40.9908 4.95347L41.0051 4.97152C41.1072 5.11966 43.4681 8.49024 43.5755 10.6981L56.3402 10.6981C57.6931 10.6994 58.7896 11.7548 58.791 13.0572L58.791 26.5612L58.2239 27.1071ZM26.0935 5.44583C26.0902 5.45081 26.0863 5.45516 26.0825 5.46014L26.0825 5.45703C24.5001 7.45448 23.9266 9.79303 23.7513 10.6962L25.4404 10.6962C25.6007 9.82228 26.0676 7.907 27.2781 6.2214C28.5113 4.50095 30.4622 2.21468 33.1024 2.21468L33.1141 2.21468C35.1232 2.21966 37.109 3.5847 39.0173 6.27244L39.0302 6.29112C39.049 6.31913 39.5061 7.03806 39.9691 7.97174C40.5078 9.0604 40.8208 9.97292 40.9055 10.6937L42.6036 10.6937C42.4917 8.80893 40.3494 5.70228 40.211 5.50434L40.1108 5.37985C40.0707 5.33005 40.0312 5.27901 39.9911 5.22984L39.8928 5.1097C39.8514 5.05929 39.8101 5.00824 39.7687 4.95907C39.7363 4.91986 39.704 4.88251 39.6717 4.84392L39.5462 4.6964C39.5152 4.65967 39.4822 4.62419 39.4505 4.58809C39.4059 4.53954 39.3639 4.49036 39.3212 4.44306C39.2921 4.40758 39.2624 4.37832 39.2326 4.34533C39.188 4.29616 39.1434 4.24636 39.0981 4.19781L39.016 4.11067C38.9694 4.06087 38.9222 4.01045 38.8757 3.9619L38.7942 3.87849C38.747 3.83057 38.6998 3.78201 38.6526 3.73471L38.573 3.66375C38.5252 3.61644 38.4773 3.56914 38.4295 3.52308C38.4043 3.49818 38.3784 3.47452 38.3525 3.45025C38.304 3.40419 38.2555 3.35813 38.207 3.31331L38.1333 3.24733C38.0835 3.20189 38.0337 3.15645 37.9839 3.11288C37.9613 3.08923 37.938 3.07055 37.9154 3.05063C37.8643 3.00582 37.8126 2.961 37.7609 2.91743L37.6904 2.85954C37.6399 2.81846 37.5888 2.77551 37.5384 2.73505L37.4737 2.68277C37.4214 2.63919 37.3696 2.59811 37.3173 2.55828C37.2966 2.54147 37.2746 2.52591 37.2526 2.50972C37.2002 2.46989 37.1478 2.43067 37.0955 2.3927L37.0308 2.34664C36.9784 2.30929 36.926 2.27195 36.8737 2.23585L36.809 2.19352L36.6506 2.08832L36.5859 2.04973C36.5322 2.01612 36.4786 1.98189 36.4249 1.94952L36.3667 1.91528C36.3117 1.88167 36.2568 1.85055 36.2018 1.81943C36.1863 1.81009 36.1701 1.802 36.1546 1.79328C36.0964 1.76029 36.0382 1.72855 35.98 1.69805L35.9399 1.67813C35.8791 1.64825 35.8183 1.61526 35.7575 1.58601L35.7349 1.57542Q34.4125 0.937412 33.105 0.933677L33.0889 0.933677C30.0276 0.933677 27.6331 3.50191 26.0935 5.44583ZM39.929 10.7012L26.4284 10.7012C26.6011 9.8478 27.046 8.19208 28.0761 6.75733C29.1877 5.2093 30.9174 3.15334 33.1024 3.15334L33.1089 3.15334C34.7772 3.15707 36.4928 4.38268 38.2077 6.7953C38.6565 7.49307 39.7312 9.404 39.929 10.6981L39.929 10.7012ZM9.89439 11.6324C9.11753 11.632 8.48736 12.2378 8.48665 12.9856L8.48665 26.1747L12.653 30.1839L53.6534 30.1839L57.821 26.1747L57.821 13.0578C57.8203 12.2708 57.1578 11.6331 56.3402 11.6324L9.89439 11.6324ZM58.9391 47.7588C58.888 47.8646 58.5162 48.0657 57.4764 48.0657L8.82937 48.0657C7.82772 48.0657 7.46107 47.869 7.40223 47.7545C7.3505 47.653 7.46172 47.4146 7.56195 47.2914L7.58394 47.2652L8.84877 45.2155L8.86429 45.1738C9.93578 42.3105 10.2617 38.5646 9.83426 34.0456C9.5174 30.6962 8.89792 28.2182 8.87205 28.1149L8.78928 27.7875L12.2514 31.1188L54.055 31.1188L56.9804 28.3041C56.8155 29.1643 56.6131 30.3526 56.4463 31.7326L56.4398 31.7357L56.445 31.7456C56.3861 32.2312 56.3318 32.7416 56.2853 33.2688C55.8546 38.1525 56.2452 42.1611 57.4492 45.1825L57.4641 45.2192L58.7076 47.2366L58.7302 47.2721L58.7554 47.3013C58.8595 47.4227 58.9856 47.663 58.9391 47.7588ZM58.8156 45.0144C61.9091 44.9846 63.9383 44.3441 64.6897 43.1577C65.434 41.9819 64.7162 40.5639 64.6813 40.4954L57.9232 28.5301C57.7745 29.3106 57.5966 30.3576 57.4427 31.5707C58.0829 32.7671 60.7387 37.7206 61.8018 39.5331C62.2738 40.338 62.3572 41.0171 62.0507 41.5517C61.5981 42.3404 60.5162 42.4126 60.394 42.4182L57.8107 42.4182C57.9885 43.8206 58.5608 44.6883 58.8156 45.0144ZM1.30891 43.3705C0.577553 42.2165 1.25459 40.8291 1.31279 40.7152L8.18337 29.498C8.29912 30.0781 8.44203 30.8499 8.57136 31.755C7.95964 32.899 5.2696 37.921 4.20005 39.7454C3.728 40.5502 3.64458 41.2293 3.95109 41.764C4.40374 42.5526 5.48493 42.6255 5.60715 42.6311L8.19372 42.6311C8.01201 44.0204 7.43779 44.898 7.18496 45.2273C4.09077 45.1974 2.06225 44.5569 1.31085 43.3705L1.30891 43.3705ZM57.2507 33.3634C57.2507 33.3317 57.2565 33.3012 57.2591 33.2675C58.3177 35.2364 60.1211 38.5727 60.9547 39.9944C61.2405 40.4824 61.3278 40.8751 61.1997 41.1011C61.0407 41.3818 60.5311 41.4746 60.3539 41.4876L57.444 41.4876C56.97 38.6573 57.0483 35.6665 57.2507 33.3634ZM8.75177 41.698C9.19214 38.8771 9.06022 35.8526 8.78669 33.3945C7.73525 35.3515 5.89296 38.7619 5.05168 40.2041C4.76522 40.6903 4.67792 41.0874 4.80725 41.3127C4.96956 41.6009 5.49657 41.6881 5.64788 41.698L8.75177 41.698Z" id="Shape" fill="#221F20" fill-rule="evenodd" stroke="none" />
    <path d="M1.499 0L6.501 0Q6.57464 0 6.64793 0.00721809Q6.72121 0.0144362 6.79344 0.0288029Q6.86567 0.0431695 6.93614 0.0645464Q7.00661 0.0859233 7.07464 0.114105Q7.14268 0.142286 7.20762 0.177Q7.27257 0.211714 7.3338 0.252627Q7.39503 0.29354 7.45196 0.340257Q7.50888 0.386975 7.56095 0.439047Q7.61303 0.491119 7.65974 0.548044Q7.70646 0.60497 7.74737 0.6662Q7.78828 0.727431 7.823 0.792376Q7.85771 0.857322 7.88589 0.925357Q7.91408 0.993393 7.93545 1.06386Q7.95683 1.13433 7.9712 1.20656Q7.98556 1.27879 7.99278 1.35207Q8 1.42536 8 1.499L8 1.501Q8 1.57464 7.99278 1.64793Q7.98556 1.72121 7.9712 1.79344Q7.95683 1.86567 7.93545 1.93614Q7.91408 2.00661 7.88589 2.07464Q7.85771 2.14268 7.823 2.20762Q7.78829 2.27257 7.74737 2.3338Q7.70646 2.39503 7.65974 2.45196Q7.61303 2.50888 7.56095 2.56095Q7.50888 2.61303 7.45196 2.65974Q7.39503 2.70646 7.3338 2.74737Q7.27257 2.78829 7.20762 2.823Q7.14268 2.85771 7.07464 2.8859Q7.00661 2.91408 6.93614 2.93545Q6.86567 2.95683 6.79344 2.9712Q6.72121 2.98556 6.64793 2.99278Q6.57464 3 6.501 3L1.499 3Q1.42536 3 1.35207 2.99278Q1.27879 2.98556 1.20656 2.9712Q1.13433 2.95683 1.06386 2.93545Q0.993393 2.91408 0.925357 2.8859Q0.857322 2.85771 0.792376 2.823Q0.727431 2.78829 0.6662 2.74737Q0.60497 2.70646 0.548044 2.65974Q0.491119 2.61303 0.439047 2.56095Q0.386975 2.50888 0.340257 2.45196Q0.29354 2.39503 0.252627 2.3338Q0.211714 2.27257 0.177 2.20762Q0.142286 2.14268 0.114105 2.07464Q0.0859233 2.00661 0.0645464 1.93614Q0.0431695 1.86567 0.0288029 1.79344Q0.0144362 1.72121 0.00721809 1.64793Q0 1.57464 0 1.501L0 1.499Q0 1.42536 0.00721809 1.35207Q0.0144362 1.27879 0.0288029 1.20656Q0.0431695 1.13433 0.0645464 1.06386Q0.0859233 0.993393 0.114105 0.925357Q0.142286 0.857322 0.177 0.792376Q0.211714 0.727431 0.252627 0.6662Q0.29354 0.60497 0.340257 0.548044Q0.386975 0.491119 0.439047 0.439047Q0.491119 0.386975 0.548044 0.340257Q0.60497 0.29354 0.6662 0.252627Q0.727431 0.211714 0.792376 0.177Q0.857322 0.142286 0.925357 0.114105Q0.993393 0.0859233 1.06386 0.0645464Q1.13433 0.0431695 1.20656 0.0288029Q1.27879 0.0144362 1.35207 0.00721809Q1.42536 0 1.499 0L1.499 0Z" transform="translate(29 25)" id="Rectangle" fill="#221F20" stroke="none" />
  </g>
</svg>