<?xml version="1.0" encoding="utf-8"?>
<svg width="38px" height="49px" viewBox="0 0 38 49" version="1.1" xmlns:xlink="http://www.w3.org/1999/xlink" xmlns="http://www.w3.org/2000/svg">
  <desc>Created with Lunacy</desc>
  <g id="Obag_twist">
    <path d="M27.5469 13.1543C29.3553 14.065 31.0062 15.2575 32.4371 16.6869C38.3024 22.5326 39.6825 31.4941 35.8461 38.823C32.0096 46.1518 23.844 50.1532 15.6757 48.7069C7.50743 47.2606 1.22555 40.7011 0.158572 32.504C-0.908404 24.307 3.48628 16.368 11.014 12.8936C11.016 12.5401 11.0192 12.1459 11.0249 11.7174C11.0447 10.302 11.0862 7.3576 12.1487 4.77748C12.7384 3.34627 13.5686 2.21898 14.6177 1.42612C15.8698 0.480037 17.4448 0 19.2955 0C21.1347 0 22.6988 0.480673 23.9445 1.42803C24.9879 2.22089 25.8149 3.34882 26.4033 4.78003C27.4665 7.36587 27.5137 10.4146 27.5341 11.7161C27.5424 12.2559 27.5469 12.7391 27.5469 13.1543ZM11.9821 11.7307C12.0013 10.3739 12.0408 7.55216 13.0345 5.13926C13.5578 3.86764 14.2853 2.8745 15.1966 2.18592C16.2782 1.36826 17.6573 0.953716 19.2955 0.953716C20.9202 0.953716 22.2891 1.36826 23.3638 2.18592C24.2699 2.87514 24.9943 3.86954 25.5175 5.14117C26.5124 7.56043 26.5558 10.3777 26.5769 11.7313C26.5826 12.0817 26.5858 12.4078 26.5877 12.7073C21.9389 10.7057 16.6827 10.6245 11.9738 12.4816C11.9758 12.2457 11.9783 11.9946 11.9821 11.7307ZM12.4889 46.7893C19.1448 49.3699 26.7021 47.7936 31.76 42.7697L31.7639 42.7697C35.1459 39.4005 37.0459 34.8306 37.0459 30.0656C37.0459 25.3005 35.1459 20.7307 31.7639 17.3615C30.5343 16.1339 29.1333 15.0895 27.6043 14.2606C27.6739 15 27.8366 16.21 28.1946 17.0404C28.3331 17.3888 28.4537 17.6825 28.5329 17.8625C28.8781 18.6477 29.261 19.5378 29.261 20.1279C29.261 21.3218 28.2896 22.2896 27.0913 22.2896C25.8929 22.2896 24.9215 21.3218 24.9215 20.1279C24.9215 19.5442 25.3523 18.6782 25.663 17.8873C25.7422 17.687 25.8724 17.3551 26.0255 16.966C26.302 16.1418 26.4902 15.2908 26.5871 14.4272C26.589 14.2587 26.5928 14.0317 26.5928 13.7539C21.9697 11.6336 16.665 11.5468 11.9745 13.5148L11.9745 13.6661C11.993 14.0203 12.1149 15.8959 12.6094 17.0404C12.7486 17.3888 12.8685 17.6825 12.9483 17.8625C13.2923 18.6477 13.6752 19.5378 13.6752 20.1279C13.6752 21.3218 12.7037 22.2896 11.5054 22.2896C10.3071 22.2896 9.33568 21.3218 9.33568 20.1279C9.33568 19.5442 9.76389 18.6782 10.0734 17.8873C10.1519 17.687 10.2827 17.3551 10.4359 16.966C10.5393 16.6633 10.9221 15.4712 11.0153 14.2123L11.0153 13.9516C4.6172 17.1137 0.695155 23.7401 1.01416 30.8488C1.33316 37.9574 5.83309 44.2086 12.4889 46.7893Z" id="Shape" fill="#221F20" fill-rule="evenodd" stroke="none" />
  </g>
</svg>