<?xml version="1.0" encoding="utf-8"?>
<svg width="58px" height="53px" viewBox="0 0 58 53" version="1.1" xmlns:xlink="http://www.w3.org/1999/xlink" xmlns="http://www.w3.org/2000/svg">
  <desc>Created with Lunacy</desc>
  <g id="Obag_mini">
    <path d="M56.2079 12.3994C56.8154 12.3313 57.2838 12.4485 57.6046 12.7482C57.8067 12.9372 58.0383 13.293 57.9947 13.9139L56.0193 43.9925C56.0135 44.1878 55.923 46.3233 54.6662 48.4834C53.9329 49.7662 52.8715 50.8392 51.5867 51.5963C50.0001 52.5277 48.0414 53 45.7657 53L12.2309 53C9.95466 53 7.99595 52.5277 6.40935 51.5963C5.12449 50.8392 4.06304 49.7662 3.32982 48.4834C2.07299 46.3227 1.98253 44.1878 1.97676 43.9925L0.00521556 13.9101C-0.0377695 13.293 0.193195 12.9372 0.394648 12.7482C0.714149 12.4491 1.18506 12.3313 1.79327 12.3994C6.47672 12.9208 11.4046 13.2924 16.5243 13.5128C16.7405 11.5422 17.1691 9.30723 18.0378 7.22902C18.943 5.05887 20.221 3.3497 21.8301 2.15315C23.7477 0.724224 26.1652 0 29.0156 0C31.8443 0 34.2464 0.724854 36.155 2.15504C37.7551 3.3541 39.0254 5.06201 39.9313 7.23217C40.7891 9.28897 41.2208 11.5429 41.4422 13.514C46.5747 13.2942 51.5103 12.9221 56.2079 12.3994ZM18.9263 7.58735C19.7674 5.5759 20.9396 3.99772 22.4101 2.90571C24.1577 1.60463 26.3801 0.944641 29.0157 0.944641C31.6281 0.944641 33.8338 1.60463 35.5706 2.90571C37.0327 4.0015 38.201 5.57779 39.0402 7.5905C39.8575 9.54969 40.27 11.6695 40.4837 13.5531C36.7972 13.6967 33.0184 13.7622 29.1472 13.7496L28.8488 13.7496C24.9746 13.7626 21.1874 13.6969 17.4873 13.5524C17.6977 11.6657 18.109 9.54339 18.9263 7.58735ZM55.0601 43.9409L57.0355 13.8522L57.0355 13.8547C57.0451 13.7093 57.0349 13.5254 56.9361 13.4315C56.8373 13.3377 56.6095 13.3043 56.3118 13.3377C51.6078 13.861 46.6626 14.2345 41.5301 14.4555C41.5975 15.2496 41.6327 15.9758 41.6533 16.6055L41.6635 16.6055C41.6635 16.6055 41.7405 18.7977 42.3051 20.0894C42.4482 20.4426 42.572 20.7412 42.6535 20.9232C42.6984 21.0241 42.7449 21.1268 42.7918 21.2304C43.1148 21.944 43.4568 22.6995 43.4529 23.223C43.4322 24.4194 42.4383 25.3787 41.2192 25.3787C40.0002 25.3787 39.0063 24.4194 38.9856 23.223C38.9856 22.6311 39.4001 21.7526 39.7209 20.9496L40.0936 20.015C40.2052 19.6907 40.6389 18.3701 40.7031 17.0218C40.689 16.3045 40.655 15.4424 40.5748 14.4946C36.8524 14.6407 33.0421 14.7072 29.144 14.6942L28.8495 14.6942C24.9381 14.7072 21.1197 14.6405 17.3943 14.4939C17.3308 15.2654 17.2974 15.9795 17.2782 16.6055L17.2859 16.6055C17.2859 16.6055 17.3628 18.7977 17.9274 20.0894C18.0705 20.4426 18.1943 20.7412 18.2764 20.9232C18.6319 21.7198 19.0746 22.6235 19.0746 23.223C19.0539 24.4194 18.0599 25.3787 16.8409 25.3787C15.6219 25.3787 14.628 24.4194 14.6073 23.223C14.6073 22.6311 15.0218 21.7526 15.3425 20.9496L15.7153 20.015C16.005 19.1642 16.2005 18.2853 16.2985 17.3934C16.3126 16.6011 16.3408 15.5885 16.4332 14.4549C11.3096 14.2338 6.37727 13.861 1.68163 13.3383C1.61178 13.3304 1.54153 13.3261 1.4712 13.3257C1.2768 13.3257 1.13053 13.3623 1.05675 13.4322C0.962435 13.5216 0.952812 13.708 0.962435 13.8484L2.93847 43.951L2.93847 43.961C3.03705 45.3971 3.46259 46.7931 4.18375 48.0463C5.74661 50.7064 8.45467 52.0554 12.2322 52.0554L45.7664 52.0554C49.5593 52.0554 52.2731 50.6957 53.8328 48.0154C55.003 46.0034 55.0601 43.9812 55.0601 43.961L55.0601 43.9409Z" id="Shape" fill="#221F20" fill-rule="evenodd" stroke="none" />
  </g>
</svg>