<?xml version="1.0" encoding="utf-8"?>
<svg width="48px" height="49px" viewBox="0 0 48 49" version="1.1" xmlns:xlink="http://www.w3.org/1999/xlink" xmlns="http://www.w3.org/2000/svg">
  <desc>Created with Lunacy</desc>
  <g id="Opocket">
    <path d="M5.29883 7.95941C7.17933 5.93753 9.44913 4.29646 11.9789 3.1297C15.1417 1.67025 18.7632 0.929983 22.7379 0.929983C26.2991 0.929983 29.6347 1.66591 32.6532 3.11668C35.072 4.27916 37.2957 5.90229 39.2609 7.94019C42.6212 11.4196 44.0895 14.9516 44.1105 15L44.1105 15L44.5553 14.8283L45 14.6565C44.9365 14.5065 43.4637 10.9422 39.9807 7.32826C37.9355 5.20294 35.6184 3.50851 33.0948 2.29396C29.939 0.771266 26.4541 0 22.7379 0C18.6221 0 14.8653 0.770026 11.5716 2.289C8.92935 3.50733 6.55869 5.22132 4.59486 7.33322C1.2078 10.9589 0.0482867 14.54 0 14.6937L0.909823 14.9653C0.921894 14.9299 2.05345 11.4332 5.29883 7.95941Z" transform="translate(2 0)" id="Path" fill="#221F20" stroke="none" />
    <path d="M38.1523 0.00492328L27.6613 0.00492328C27.6074 0.00184623 27.5536 0 27.4998 0L14.9148 0C14.8507 0 14.7898 0 14.7283 0.00676951L3.84451 0.00676951C1.72298 0.00676951 0 1.5976 0 3.55338L0 16.3539C0.00357888 17.4174 0.473433 18.4304 1.29432 19.1442L1.29432 27.2307C1.29432 28.7563 2.73665 30 4.50961 30L37.5 30C39.273 30 40.7153 28.7587 40.7153 27.2307L40.7153 19.1356L40.7102 19.1356C41.5276 18.4226 41.9957 17.4126 42 16.3521L42 3.55153C42 1.59576 40.2738 0.00492328 38.1523 0.00492328ZM29.2804 13.1064L29.2804 2.63334C29.2792 1.73711 28.5586 0.993435 27.6279 0.928038L27.4825 0.928038L27.4825 0.921269L15.8368 0.921269L15.8368 0.928038L14.7616 0.928038C13.8406 1.00496 13.1337 1.7454 13.1335 2.63334L13.1335 13.1064L29.2804 13.1064ZM37.7999 19.2937C39.5844 19.2937 41.0357 17.9743 41.0357 16.3521L41.0357 3.55153C41.0357 2.1047 39.7439 0.928038 38.1523 0.928038L29.5867 0.928038C30.0087 1.40372 30.24 2.00843 30.239 2.63334L30.239 19.2937L37.7999 19.2937ZM0.959205 3.55338L0.959205 16.3539L0.957924 16.3539C0.957924 17.9749 2.40923 19.2956 4.19372 19.2956L12.173 19.2956L12.173 2.63334C12.1724 2.00883 12.4042 1.40468 12.8266 0.929884L3.84579 0.929884C2.25416 0.929884 0.959205 2.10655 0.959205 3.55338ZM13.1335 15.4622L29.2804 15.4622L29.2804 21.388C29.279 22.3319 28.4826 23.0968 27.4998 23.0982L14.9148 23.0982C13.9319 23.0968 13.1355 22.3319 13.1341 21.388L13.1335 15.4622ZM39.7542 27.2307C39.7542 28.2473 38.7431 29.0769 37.5 29.0769L4.50961 29.0769C3.26655 29.0769 2.25545 28.2498 2.25545 27.2307L2.25545 19.7799C2.85699 20.0695 3.52081 20.2198 4.19372 20.2187L12.173 20.2187L12.173 21.388C12.1748 22.8416 13.4013 24.0196 14.9148 24.0213L27.4998 24.0213C29.0133 24.0196 30.2398 22.8416 30.2416 21.388L30.2416 20.2187L37.8024 20.2187C38.4801 20.2197 39.1485 20.0675 39.7535 19.7743L39.7542 27.2307Z" transform="translate(3 19)" id="Shape" fill="#221F20" fill-rule="evenodd" stroke="none" />
    <path d="M2.10581 2.87284C2.05521 2.98671 1.97178 3.0841 1.8655 3.15338L1.8697 3.15164C2.5988 3.33248 3.07552 4.00872 2.98303 4.73092C2.89053 5.45311 2.25761 5.99652 1.50491 5.99998C0.75221 6.00345 0.113969 5.46589 0.0143725 4.74457C-0.0852244 4.02326 0.384817 3.34267 1.1121 3.15513C0.99013 3.07899 0.894999 2.96879 0.839341 2.83915L0.835736 2.82986L0.0547044 0.910177C-0.0340156 0.71025 -0.0139004 0.480733 0.108349 0.298088C0.230598 0.115443 0.438918 0.00366774 0.663909 0L2.31429 0C2.54399 0.00691529 2.75592 0.121229 2.88266 0.306575C3.00939 0.49192 3.03515 0.725218 2.95173 0.932249L2.94693 0.943285L2.10581 2.87284ZM1.99827 0.873003L1.48339 2.05211L1.00576 0.873003L1.99827 0.873003ZM0.895816 4.55611C0.895816 4.87466 1.16292 5.13289 1.4924 5.13289L1.49421 5.13289C1.82285 5.13161 2.08866 4.87385 2.08899 4.55611C2.08899 4.23757 1.82189 3.97934 1.4924 3.97934C1.16292 3.97934 0.895816 4.23757 0.895816 4.55611Z" transform="translate(45 16)" id="Shape" fill="#221F20" fill-rule="evenodd" stroke="none" />
    <path d="M2.12688 2.91534C2.09191 2.99829 2.04015 3.07336 1.97478 3.13597C2.66839 3.36852 3.08833 4.06239 2.96617 4.77406C2.84401 5.48573 2.21583 6.00501 1.48317 5.99996C0.750503 5.99492 0.12975 5.46705 0.0176971 4.75376C-0.0943553 4.04048 0.335387 3.35246 1.03223 3.12948C0.959635 3.06017 0.902704 2.97655 0.865156 2.88408L0.068717 0.942089C-0.0218725 0.739835 -0.00408117 0.506394 0.116149 0.319732C0.236379 0.133071 0.443203 0.0177882 0.667544 0.0123882L0.67473 0.0123882L2.30414 0L2.31132 0C2.39118 0.00188927 2.47013 0.0170467 2.54487 0.0448333C2.71957 0.109914 2.86087 0.240699 2.93769 0.408416C3.0145 0.576132 3.02054 0.76704 2.95446 0.93914L2.94967 0.950938L2.12688 2.91534ZM2.00532 0.886048L1.5041 2.0818L1.01666 0.893717L2.00532 0.886048ZM0.942045 4.75088C1.03401 4.96992 1.25091 5.11277 1.49153 5.11277C1.81933 5.11244 2.08518 4.85109 2.08616 4.52816C2.08665 4.29113 1.94208 4.07717 1.71992 3.98613C1.49776 3.89509 1.2418 3.94492 1.07148 4.11236C0.901171 4.2798 0.850077 4.53184 0.942045 4.75088Z" transform="translate(0 16)" id="Shape" fill="#221F20" fill-rule="evenodd" stroke="none" />
  </g>
</svg>