<?xml version="1.0" encoding="utf-8"?>
<svg width="54px" height="59px" viewBox="0 0 54 59" version="1.1" xmlns:xlink="http://www.w3.org/1999/xlink" xmlns="http://www.w3.org/2000/svg">
  <desc>Created with Lunacy</desc>
  <g id="Obag">
    <path d="M52.2975 15.4014C52.8578 15.3337 53.2968 15.4451 53.6019 15.733C53.8944 16.0082 54.027 16.4112 53.9954 16.9276L52.1592 49.8665C52.1541 50.0487 52.0739 52.2158 50.9027 54.4101C49.7853 56.5039 47.4361 59 42.593 59L11.4071 59C6.56399 59 4.21604 56.5039 3.0986 54.4101C1.92811 52.2158 1.84788 50.0481 1.84346 49.8658L0.0046454 16.9263C-0.035782 16.2872 0.195412 15.9253 0.396918 15.7355C0.702018 15.447 1.1404 15.335 1.7007 15.4027C5.73649 15.8911 9.96179 16.2505 14.3425 16.4783C14.3829 14.2239 14.5509 10.2218 16.0569 6.77786C18.0233 2.27785 21.6586 0 26.8623 0C32.0263 0 35.6414 2.28164 37.6053 6.78102C39.1156 10.2433 39.2862 14.2492 39.3291 16.4954C43.8279 16.2689 48.1625 15.9038 52.2975 15.4014ZM16.9248 7.15813C17.746 5.27574 18.8988 3.80464 20.3459 2.78087C22.066 1.56539 24.2567 0.949102 26.8623 0.949102C29.4446 0.949102 31.6201 1.56539 33.3301 2.78403C34.7684 3.80717 35.9149 5.28081 36.7367 7.16446C38.1801 10.4692 38.3431 14.3631 38.3829 16.541Q32.9081 16.7941 27.139 16.7706L26.8598 16.7706Q20.9284 16.7922 15.2906 16.5251C15.3279 14.3409 15.4858 10.4496 16.9248 7.15813ZM51.2123 49.8209L53.0492 16.8719C53.0574 16.7447 53.0549 16.5207 52.9532 16.4245C52.8666 16.3448 52.6695 16.3132 52.4125 16.3448C48.2453 16.8504 43.8772 17.218 39.3449 17.4451C39.3595 18.5461 39.3595 20.1842 39.3595 21.8743L39.3715 21.8743C39.3715 21.8743 39.4536 24.2287 40.0486 25.6207C40.1996 26.001 40.3303 26.3218 40.4163 26.5179C40.7921 27.3746 41.2286 28.3465 41.2286 28.99C41.2286 30.2924 40.1746 31.3482 38.8743 31.3482C37.5741 31.3482 36.5201 30.2924 36.5201 28.99C36.5201 28.3535 36.9888 27.4082 37.3261 26.5451C37.412 26.3268 37.5535 25.9643 37.7196 25.5397C37.8491 25.1569 38.386 23.4745 38.3715 21.8831L38.4119 21.8831C38.4126 20.2121 38.4094 18.5891 38.398 17.4913Q32.9056 17.7425 27.1371 17.721L26.8617 17.721Q20.9145 17.7425 15.278 17.4761C15.2654 18.5727 15.2654 20.1975 15.2654 21.8749L15.29 21.8749C15.29 21.8749 15.3721 24.2293 15.9672 25.6213C16.1181 26.0016 16.2482 26.3224 16.3342 26.5186C16.7106 27.3753 17.1471 28.3472 17.1471 28.9906C17.1261 30.2782 16.0781 31.3109 14.7925 31.3109C13.507 31.3109 12.459 30.2782 12.438 28.9906C12.438 28.3541 12.9073 27.4088 13.2446 26.5458C13.3299 26.3275 13.472 25.9649 13.6375 25.5403C13.7676 25.1575 14.3046 23.4751 14.2894 21.8838L14.3178 21.8838C14.3166 20.1811 14.3197 18.5315 14.3305 17.4293C9.91568 17.2003 5.65627 16.839 1.58826 16.3454C1.52541 16.3374 1.46212 16.3331 1.39876 16.3328C1.23642 16.3328 1.11008 16.3651 1.04691 16.4252C0.944583 16.5207 0.942687 16.7415 0.950899 16.8681L2.79035 49.8298L2.79035 49.838C2.79098 49.8595 2.84909 51.9475 3.95327 53.9919C5.40044 56.6855 7.90883 58.0509 11.4071 58.0509L42.5936 58.0509C46.0919 58.0509 48.599 56.6855 50.0519 53.9919C51.1535 51.9469 51.2123 49.8582 51.2123 49.8374L51.2123 49.8209Z" id="Shape" fill="#221F20" fill-rule="evenodd" stroke="none" />
  </g>
</svg>