<?xml version="1.0" encoding="utf-8"?>
<svg width="25px" height="25px" viewBox="0 0 25 25" version="1.1" xmlns:xlink="http://www.w3.org/1999/xlink" xmlns="http://www.w3.org/2000/svg">
  <desc>Created with Lunacy</desc>
  <defs>
    <path d="M0 0L25 0L25 25L0 25L0 0Z" id="path_1" />
    <clipPath id="mask_1">
      <use xlink:href="#path_1" />
    </clipPath>
  </defs>
  <g id="Group-3">
    <path d="M0 0L25 0L25 25L0 25L0 0Z" id="Clip-2" fill="none" stroke="none" />
    <g clip-path="url(#mask_1)">
      <path d="M0.00147331 2.66696C0.00147331 1.16875 1.33518 0 2.89882 0L18.1589 0C18.4916 0 18.7615 0.269816 18.7615 0.602039C18.7615 0.934721 18.4916 1.20454 18.1589 1.20454L2.89882 1.20454C1.90887 1.20454 1.19199 1.88275 1.19199 2.66696L1.19199 18.1686C1.19382 18.1965 1.19382 18.2245 1.19199 18.2525C1.16904 18.5811 0.883573 18.8289 0.554966 18.8055C0.226358 18.7825 -0.0214741 18.4971 0.00147331 18.1686L0.00147331 2.66696ZM21.3141 0C20.9813 0 20.7119 0.269816 20.7119 0.602039C20.7119 0.934721 20.9813 1.20454 21.3141 1.20454L22.9635 1.20454L17.6856 6.48156C17.4167 6.67199 17.3529 7.04459 17.5433 7.31303C17.7338 7.58193 18.1065 7.64571 18.3754 7.45528C18.4305 7.41628 18.4787 7.3681 18.5172 7.31303L23.7951 2.03601L23.7951 3.6852C23.7951 4.01788 24.0645 4.28769 24.3977 4.28769C24.7305 4.28769 24.9999 4.01788 24.9999 3.6852L24.9999 0.602039C24.999 0.563494 24.9944 0.525408 24.9857 0.487321L24.9857 0.473096C24.9815 0.458871 24.9769 0.444187 24.9714 0.429962L24.9714 0.415737C24.9673 0.401512 24.9622 0.386829 24.9572 0.372604C24.9526 0.368015 24.9476 0.363426 24.943 0.358379C24.931 0.329011 24.9168 0.300102 24.8998 0.27257L24.8856 0.258345C24.8764 0.248708 24.8668 0.239072 24.8571 0.229895L24.8571 0.21567C24.848 0.200986 24.8388 0.186302 24.8287 0.172536L24.8145 0.172536C24.8053 0.162899 24.7956 0.153263 24.7855 0.144086C24.7764 0.134449 24.7672 0.124813 24.7571 0.115636C24.7479 0.110588 24.7378 0.105999 24.7282 0.101411L24.714 0.101411C24.7048 0.0913154 24.6951 0.0816791 24.6855 0.0725017L24.6713 0.0725017C24.657 0.0624065 24.6428 0.0527702 24.6281 0.0440517L24.6139 0.0440517C24.5997 0.0390041 24.5854 0.0339565 24.5708 0.0298266L24.5565 0.0298266C24.5423 0.0243202 24.5281 0.0197315 24.5134 0.0156016L24.4992 0.0156016C24.4661 0.00780081 24.4326 0.0032121 24.3991 0.00137661L21.3154 0.00137661L21.3141 0ZM23.7969 6.82572C23.7941 6.49717 24.0566 6.22827 24.3852 6.22323L24.3935 6.22313C24.3992 6.22302 24.4051 6.22292 24.4109 6.22323C24.7404 6.22644 25.0048 6.49625 25.0016 6.82572L25.0016 22.3411C25.0016 23.8434 23.6537 24.9938 22.0905 24.9938L6.82996 24.9938C6.80196 24.9961 6.77397 24.9961 6.74597 24.9938C6.41691 24.9709 6.16953 24.6859 6.19294 24.3569C6.21589 24.0284 6.50135 23.7806 6.82996 23.804L22.0905 23.804C23.08 23.804 23.7969 23.1216 23.7969 22.3411L23.7969 6.82572ZM6.81333 17.5087C6.68069 17.5303 6.55953 17.5959 6.46912 17.6955L1.1912 22.9578L1.1912 21.3233C1.19717 20.9938 0.935109 20.7217 0.605583 20.7158C0.575752 20.7153 0.546379 20.7171 0.517006 20.7208C0.216853 20.7616 -0.00481897 21.0204 0.000688424 21.3233L0.000688424 24.2913C-0.000229475 24.3106 -0.000229475 24.3298 0.000688424 24.3486L0.000688424 24.4207C0.00206527 24.479 0.0117032 24.5368 0.0296022 24.5928C0.0502549 24.6492 0.0791687 24.7024 0.115885 24.7502C0.147552 24.7988 0.186104 24.8419 0.230622 24.8791C0.24439 24.8896 0.259077 24.8988 0.273763 24.908C0.343523 24.9521 0.421545 24.9814 0.503238 24.9938C0.560147 25.0021 0.617975 25.0021 0.675344 24.9938L3.67274 24.9938C4.00135 25.0172 4.28681 24.7694 4.31022 24.4409C4.33363 24.1123 4.08579 23.8274 3.75719 23.804C3.72919 23.8017 3.70074 23.8017 3.67274 23.804L2.03796 23.804L7.31588 18.5269C7.55178 18.297 7.55729 17.9194 7.32781 17.6831C7.19426 17.5459 7.00333 17.4807 6.81379 17.5087L6.81333 17.5087Z" id="Fill-1" fill="#000000" fill-rule="evenodd" stroke="none" />
    </g>
  </g>
</svg>